<?xml version="1.0" encoding="UTF-8"?>
<svg version="1.1" xmlns="http://www.w3.org/2000/svg" width="1040" height="1041">
<path d="M0 0 C2.3001261 5.20554855 2.3001261 5.20554855 0.9375 8.8125 C-1 11 -1 11 -3.5 12 C-6 12 -6 12 -7.75 10.75 C-9 9 -9 9 -10 6 C-7.47516356 -0.01151532 -6.38865984 -1.51310365 0 0 Z M-4 4 C-4.66 4.66 -5.32 5.32 -6 6 C-5.34 6.66 -4.68 7.32 -4 8 C-3.67 6.68 -3.34 5.36 -3 4 C-3.33 4 -3.66 4 -4 4 Z " fill="#000000" transform="translate(224,235)"/>
<path d="M0 0 C4.96406826 0.46177379 7.3252474 1.67762094 11 5 C17.67418027 13.27787022 22.51167148 22.39198907 27 32 C27.60226207 33.27169273 28.20497069 34.54317407 28.80810547 35.81445312 C47 74.33587688 47 74.33587688 47 85 C43.35311397 84.40106412 43.07396816 84.09978842 40.68359375 80.875 C37.35771855 75.16843165 34.7324429 69.10144199 32.01226807 63.09103394 C24.46489847 46.47454986 15.75770788 30.87530754 6.125 15.3671875 C5.69751465 14.67246338 5.2700293 13.97773926 4.82958984 13.26196289 C4.0602698 12.01692428 3.28033071 10.77834393 2.48681641 9.54858398 C0.4178649 6.22516188 -0.42203558 3.92202031 0 0 Z " fill="#000000" transform="translate(149,299)"/>
<path d="M0 0 C-1.29465959 4.67173461 -3.05234365 7.69483368 -6.1875 11.375 C-6.991875 12.32375 -7.79625 13.2725 -8.625 14.25 C-9.40875 15.1575 -10.1925 16.065 -11 17 C-11.639375 17.763125 -12.27875 18.52625 -12.9375 19.3125 C-15.43927923 22.26102552 -17.78262039 24.82711856 -20.82421875 27.24609375 C-24.52044264 30.28000836 -27.27151911 33.87348489 -30.125 37.6875 C-30.68558105 38.42935547 -31.24616211 39.17121094 -31.82373047 39.93554688 C-39.04692841 49.59893216 -45.70379394 59.65929699 -52.0546875 69.9140625 C-52.54952637 70.70425781 -53.04436523 71.49445313 -53.55419922 72.30859375 C-54.49844716 73.82143138 -55.43038211 75.34204372 -56.34814453 76.87109375 C-57.625 78.9140625 -57.625 78.9140625 -60 82 C-61.32 82 -62.64 82 -64 82 C-64.74685133 75.1569747 -62.2559072 70.72103425 -59 64.8125 C-58.49380127 63.87486816 -57.98760254 62.93723633 -57.46606445 61.97119141 C-53.67525368 55.03368923 -49.63945278 48.40610547 -45 42 C-44.25194092 40.94498291 -44.25194092 40.94498291 -43.48876953 39.86865234 C-13.01308249 -3.08204585 -13.01308249 -3.08204585 0 0 Z " fill="#000000" transform="translate(818,314)"/>
<path d="M0 0 C0.99 0 1.98 0 3 0 C4.39935013 2.79870027 4.25265405 4.90498792 4 8 C2.9375 9.875 2.9375 9.875 1 11 C-2.5 11.4375 -2.5 11.4375 -6 11 C-8.0625 9.3125 -8.0625 9.3125 -9 7 C-8.1875 4.25 -8.1875 4.25 -7 2 C-5.68 2 -4.36 2 -3 2 C-3 2.99 -3 3.98 -3 5 C-2.566875 4.175 -2.13375 3.35 -1.6875 2.5 C-1.130625 1.675 -0.57375 0.85 0 0 Z " fill="#000000" transform="translate(741,316)"/>
<path d="M0 0 C4.70588235 0.70588235 4.70588235 0.70588235 6 2 C5.71269945 4.33944736 5.38063221 6.6739143 5 9 C3.1875 9.6875 3.1875 9.6875 1 10 C-0.75 8.75 -0.75 8.75 -2 7 C-2 6.01 -2 5.02 -2 4 C-1.01 4 -0.02 4 1 4 C0.34 3.01 -0.32 2.02 -1 1 C-0.67 0.67 -0.34 0.34 0 0 Z " fill="#000000" transform="translate(231,333)"/>
<path d="M0 0 C14.80459956 12.14468226 24.00083711 26.94865847 31.58984375 44.30419922 C32.24527552 45.64309108 32.90613925 46.97952176 33.58984375 48.30419922 C34.08871094 47.86849609 34.58757812 47.43279297 35.1015625 46.98388672 C52.58331943 32.48375799 76.34788702 27.77427575 98.58984375 29.30419922 C120.10820785 31.44439861 140.71342282 41.84576803 156.58984375 56.30419922 C157.36714844 56.98869141 158.14445312 57.67318359 158.9453125 58.37841797 C176.37711762 74.61009881 185.95444564 100.16018776 186.79296875 123.64404297 C187.38954445 158.73941317 172.7298655 190.04871348 148.7578125 215.31982422 C138.23624025 226.15440319 138.23624025 226.15440319 132.27734375 226.49169922 C131.39046875 226.42982422 130.50359375 226.36794922 129.58984375 226.30419922 C129.58984375 225.31419922 129.58984375 224.32419922 129.58984375 223.30419922 C126.93208304 224.49170933 125.46800597 225.15621651 123.58984375 227.30419922 C123.04347423 230.03160477 122.95825753 232.65146815 122.84375 235.42919922 C122.04903983 244.42776356 115.87956493 252.42027549 109.46484375 258.42919922 C100.83642927 265.3698579 90.19274453 269.83862184 79.01171875 269.14404297 C73.71002608 268.23994637 70.96950841 266.44701396 67.58984375 262.30419922 C68.93175781 262.33900391 68.93175781 262.33900391 70.30078125 262.37451172 C84.12121977 262.58078692 96.43761925 260.84387352 106.98828125 251.09326172 C111.81931427 245.69664435 115.45312363 239.6977004 115.73828125 232.33544922 C115.48008699 228.80226466 114.81505077 227.10160233 112.58984375 224.30419922 C106.95074604 220.5208773 101.3921962 218.29086127 94.58984375 218.30419922 C92.34448913 220.33693777 91.112762 221.76930103 89.52734375 224.24169922 C88.67484472 225.45120968 87.82067722 226.65954587 86.96484375 227.86669922 C86.55878906 228.45837891 86.15273438 229.05005859 85.734375 229.65966797 C80.92248659 236.57367828 74.61493456 244.136894 65.96875 245.81201172 C61.76076514 245.99958905 59.26466245 245.69784346 55.58984375 243.55419922 C51.03472582 238.42969155 51.11838662 233.82096984 51.1953125 227.12841797 C51.97563795 219.5646693 55.22609911 213.0316885 58.58984375 206.30419922 C50.17484375 203.82919922 50.17484375 203.82919922 41.58984375 201.30419922 C41.25984375 203.28419922 40.92984375 205.26419922 40.58984375 207.30419922 C39.63769531 209.52661133 39.63769531 209.52661133 38.48046875 211.58154297 C38.05507813 212.34273437 37.6296875 213.10392578 37.19140625 213.88818359 C36.74539063 214.66484375 36.299375 215.44150391 35.83984375 216.24169922 C35.19402344 217.40088867 35.19402344 217.40088867 34.53515625 218.58349609 C27.18850703 231.59410392 19.32845475 239.04637826 4.58984375 243.30419922 C-6.37823049 245.93653704 -17.11652715 244.09713754 -26.98828125 238.83935547 C-35.93304853 233.16952718 -41.19122095 224.85015606 -43.78515625 214.67919922 C-45.8101286 202.29571449 -44.065005 187.93414928 -37.03515625 177.36669922 C-36.18347965 176.32632781 -35.30900279 175.30409951 -34.41015625 174.30419922 C-33.58515625 173.33482422 -32.76015625 172.36544922 -31.91015625 171.36669922 C-27.08115386 167.73287492 -21.09580828 168.54343383 -15.41015625 169.30419922 C-4.40758039 171.09389329 6.30097528 173.89065133 16.71484375 177.86669922 C17.45436279 178.14715088 18.19388184 178.42760254 18.95581055 178.71655273 C22.94747737 180.33206002 25.80060026 182.00190835 28.58984375 185.30419922 C28.25984375 185.96419922 27.92984375 186.62419922 27.58984375 187.30419922 C23.9079542 188.44488789 21.5177436 188.27327619 17.90234375 187.05419922 C16.58169922 186.626875 16.58169922 186.626875 15.234375 186.19091797 C14.36167969 185.89830078 13.48898437 185.60568359 12.58984375 185.30419922 C-1.65258337 180.38313415 -1.65258337 180.38313415 -16.41015625 178.30419922 C-16.56871094 178.90748047 -16.72726562 179.51076172 -16.890625 180.13232422 C-18.0391022 184.06633452 -18.98115884 186.81722919 -21.72265625 189.92919922 C-25.08336268 191.64863041 -26.83427857 191.30211857 -30.41015625 190.30419922 C-30.74015625 188.98419922 -31.07015625 187.66419922 -31.41015625 186.30419922 C-32.07015625 186.30419922 -32.73015625 186.30419922 -33.41015625 186.30419922 C-36.53336425 200.20865067 -38.26095629 212.3673863 -30.31640625 225.05029297 C-25.81598644 231.14714548 -18.6046665 233.78956548 -11.41015625 235.30419922 C0.05002622 236.52747712 9.63416641 232.21136386 18.58984375 225.30419922 C26.32599557 218.51941882 30.51482335 210.31913183 34.73730469 201.13818359 C35.96453324 198.49816616 37.27508104 195.90146051 38.58984375 193.30419922 C47.13738289 195.25694363 54.73285945 198.44440884 62.58984375 202.30419922 C64.56984375 200.65419922 66.54984375 199.00419922 68.58984375 197.30419922 C67.99236328 195.763125 67.99236328 195.763125 67.3828125 194.19091797 C58.97523154 172.29358137 56.45846789 153.27321498 61.58984375 130.30419922 C60.93242188 130.61873047 60.275 130.93326172 59.59765625 131.25732422 C48.20680461 136.38166398 35.82339921 139.36986859 23.33984375 140.12841797 C21.48121905 140.21035229 21.48121905 140.21035229 19.58984375 141.30419922 C20.21890625 141.52333984 20.84796875 141.74248047 21.49609375 141.96826172 C29.33409601 144.8720999 37.19332001 148.84922418 41.58984375 156.30419922 C41.33984375 159.11669922 41.33984375 159.11669922 40.58984375 161.30419922 C38.90234375 162.11669922 38.90234375 162.11669922 36.58984375 162.30419922 C34.2562041 160.16502954 32.13788601 157.91222621 30.01953125 155.56201172 C26.70310753 152.44658338 24.66202837 151.30537229 20.01953125 151.30029297 C14.63836819 151.99032282 9.44003613 153.01227728 4.21484375 154.49169922 C-0.15350444 155.47081174 -4.06322313 155.42249737 -8.41015625 154.30419922 C-10.41015625 152.30419922 -10.41015625 152.30419922 -10.53515625 149.17919922 C-10.49390625 148.23044922 -10.45265625 147.28169922 -10.41015625 146.30419922 C-5.48802495 143.67053935 -0.83112327 141.65944097 4.58984375 140.30419922 C3.68105469 140.15724609 3.68105469 140.15724609 2.75390625 140.00732422 C-6.25650758 138.3993119 -14.94406509 136.09359493 -21.41015625 129.30419922 C-22.13375347 127.3240852 -22.8089715 125.32484796 -23.41015625 123.30419922 C-24.46976562 123.73732422 -24.46976562 123.73732422 -25.55078125 124.17919922 C-37.94584321 128.66384475 -52.99397783 129.92963207 -65.28515625 124.43701172 C-70.94314443 121.42080478 -74.53244525 118.32241345 -78.41015625 113.30419922 C-78.9721875 113.44857422 -79.53421875 113.59294922 -80.11328125 113.74169922 C-101.61744884 118.49108593 -124.610842 114.93445134 -143.44140625 103.45654297 C-155.23436336 95.30838716 -163.01184714 85.32967671 -166.41015625 71.30419922 C-167.60797143 57.89145477 -165.6575662 46.58387773 -157.38671875 35.62060547 C-148.56845747 25.28616092 -137.86594785 19.3257266 -124.41015625 17.30419922 C-114.21250109 16.6382299 -104.47277356 17.54324119 -94.41015625 19.30419922 C-94.4565625 18.48177734 -94.50296875 17.65935547 -94.55078125 16.81201172 C-94.86867249 6.98008967 -93.5050555 -0.21698868 -87.22265625 -7.94580078 C-63.06292569 -33.49936195 -23.79541396 -18.58089525 0 0 Z M-80.59765625 -3.87158203 C-87.5055639 4.42088469 -86.86370119 13.03644569 -86.41015625 23.30419922 C-85.09015625 23.96419922 -83.77015625 24.62419922 -82.41015625 25.30419922 C-82.26320313 24.48177734 -82.11625 23.65935547 -81.96484375 22.81201172 C-79.93935986 12.73115513 -77.13803126 4.78889365 -68.78515625 -1.63330078 C-56.56889469 -9.36418869 -42.23538992 -8.60272956 -28.41015625 -6.69580078 C-34.63208324 -12.91772777 -47.9389885 -13.66497098 -56.51171875 -13.84814453 C-66.02872306 -13.47623755 -73.83206189 -10.67448665 -80.59765625 -3.87158203 Z M-148.72265625 38.55419922 C-156.25668536 47.58283329 -159.18800989 56.65448425 -158.41015625 68.30419922 C-157.91188695 70.74788519 -157.2319194 72.94163015 -156.41015625 75.30419922 C-156.08015625 75.30419922 -155.75015625 75.30419922 -155.41015625 75.30419922 C-155.25160156 74.04865234 -155.09304688 72.79310547 -154.9296875 71.49951172 C-153.15067461 58.36551614 -150.62577823 47.54406003 -140.41015625 38.30419922 C-131.7636808 31.91910965 -121.79205302 28.65481736 -111.41015625 26.30419922 C-111.41015625 25.97419922 -111.41015625 25.64419922 -111.41015625 25.30419922 C-125.86480833 24.53594015 -138.56550703 27.8085049 -148.72265625 38.55419922 Z " fill="#000000" transform="translate(496.41015625,358.69580078125)"/>
<path d="M0 0 C9.10319086 1.66116622 15.21917504 10.59783875 20.19433594 17.74169922 C28.12049181 29.56625003 35.66206909 42.18544686 38.5 56.3125 C38.17 57.3025 37.84 58.2925 37.5 59.3125 C35.27734375 59.2734375 35.27734375 59.2734375 32.5 58.3125 C30.77623833 55.84827027 29.42025196 53.5908512 28.0625 50.9375 C27.66981934 50.20942139 27.27713867 49.48134277 26.87255859 48.73120117 C25.18864516 45.59884556 23.56471021 42.44175493 21.97265625 39.26171875 C16.18669773 27.94136512 7.42650753 18.88981162 -1.70361328 10.18188477 C-4.07946297 7.89063153 -5.43798459 6.49854622 -6.5 3.3125 C-4.63679229 0.40123796 -3.48500914 0.31116153 0 0 Z " fill="#000000" transform="translate(141.5,349.6875)"/>
<path d="M0 0 C5.95657135 5.5409966 8.18590587 13.02187749 9 21 C9.33285094 30.33429812 9.33285094 30.33429812 8 33 C5.00987688 32.6671952 3.38994798 32.36268466 1.15625 30.28515625 C-4.68849469 22.44161915 -10.44464187 13.97255931 -10.27734375 3.87890625 C-10 2 -10 2 -8.375 -0.0625 C-5.03411033 -1.38127224 -3.39694265 -1.17853112 0 0 Z " fill="#000000" transform="translate(525,351)"/>
<path d="M0 0 C2.5 0.3125 2.5 0.3125 5 1 C6.57455739 4.14911479 6.34799118 6.52008816 6 10 C4.54526197 12.33470194 2.93980241 14.01170253 1 16 C-1.3125 15.8125 -1.3125 15.8125 -4 15 C-5.9375 12.6875 -5.9375 12.6875 -7 10 C-6.1875 7.6875 -6.1875 7.6875 -5 6 C-2.525 7.98 -2.525 7.98 0 10 C0.07095984 7.4454459 0.05950561 5.23802245 -0.5625 2.75 C-0.706875 2.1725 -0.85125 1.595 -1 1 C-0.67 0.67 -0.34 0.34 0 0 Z " fill="#000000" transform="translate(296,352)"/>
<path d="M0 0 C2 3 2 3 1.8125 6.5625 C1 10 1 10 -2 12 C-5.0875593 12.32162076 -7.14015561 12.48724515 -9.875 10.9375 C-11.62409203 7.92517484 -11.30401551 5.40497373 -11 2 C-7.67085721 -2.99371418 -5.0918279 -2.16673528 0 0 Z M-6 5 C-6.33 5.66 -6.66 6.32 -7 7 C-6.01 7 -5.02 7 -4 7 C-4 6.34 -4 5.68 -4 5 C-4.66 5 -5.32 5 -6 5 Z " fill="#000000" transform="translate(844,360)"/>
<path d="M0 0 C2 2 2 2 2.375 4.8125 C1.90692829 8.79110956 0.68308806 10.06763856 -2 13 C-16.34538687 23.61818665 -16.34538687 23.61818665 -25 23 C-24.22518593 14.76760056 -18.71559539 9.18045235 -12.61328125 3.95703125 C-8.48058893 1.00310346 -5.24698646 -1.02380224 0 0 Z " fill="#000000" transform="translate(568,365)"/>
<path d="M0 0 C0.59159912 0.20850586 1.18319824 0.41701172 1.79272461 0.63183594 C1.55241132 4.71716186 1.34361089 7.00225161 -1.39477539 10.13183594 C-2.78696289 11.36933594 -2.78696289 11.36933594 -4.20727539 12.63183594 C-5.11513739 13.72613388 -6.0102254 14.83110968 -6.89477539 15.94433594 C-9.34983209 18.86522391 -11.99495502 21.12187324 -15.01977539 23.44433594 C-28.30003589 33.84621412 -37.37950231 48.07824039 -44.52001953 63.17724609 C-46.4621566 67.27690265 -48.61592518 70.92746086 -51.20727539 74.63183594 C-52.19727539 73.97183594 -53.18727539 73.31183594 -54.20727539 72.63183594 C-55.75352023 56.49934814 -43.65560334 39.8302516 -33.92211914 27.91699219 C-33.45531738 27.35254395 -32.98851562 26.7880957 -32.50756836 26.20654297 C-31.39454572 24.85862783 -30.3008406 23.49480129 -29.21118164 22.12792969 C-23.92883459 15.77775335 -17.55806552 10.83452553 -10.95288086 5.93457031 C-9.73893829 5.02861262 -8.5409577 4.10103155 -7.35620117 3.15722656 C-2.68972046 -0.44863383 -2.68972046 -0.44863383 0 0 Z " fill="#000000" transform="translate(818.207275390625,407.3681640625)"/>
<path d="M0 0 C0.99 0.33 1.98 0.66 3 1 C4.33027523 6.32110092 4.33027523 6.32110092 2.875 9.3125 C0.50172568 11.44844689 -0.80734234 11.92398434 -4 12 C-6.8125 10.875 -6.8125 10.875 -9 9 C-9.4375 6.4375 -9.4375 6.4375 -9 4 C-8.34 3.34 -7.68 2.68 -7 2 C-4.875 2.375 -4.875 2.375 -3 3 C-3.33 3.99 -3.66 4.98 -4 6 C-3.34 6 -2.68 6 -2 6 C-1.855625 5.195625 -1.71125 4.39125 -1.5625 3.5625 C-1 1 -1 1 0 0 Z " fill="#000000" transform="translate(725,419)"/>
<path d="M0 0 C6.76923077 -0.30769231 6.76923077 -0.30769231 10 2 C12.3020949 5.22293286 12.47510654 8.11996324 12 12 C10.375 14.875 10.375 14.875 8 17 C4.76291093 17.52850434 2.96207491 17.63032494 0.1875 15.8125 C-1.3151619 13.51896341 -1.79013448 11.72825177 -2 9 C-1.34 8.34 -0.68 7.68 0 7 C1.65 7.99 3.3 8.98 5 10 C5 9.01 5 8.02 5 7 C3.02 6.34 1.04 5.68 -1 5 C-0.67 3.35 -0.34 1.7 0 0 Z " fill="#000000" transform="translate(312,460)"/>
<path d="M0 0 C10.5717074 5.82522653 20.18931854 13.8346191 23.75 25.78515625 C24.4786578 29.7244625 24.25962205 33.24355485 22.4453125 36.84765625 C17.30346176 44.01277962 9.34584742 49.062801 2.34375 54.2421875 C-15.67398276 67.7155607 -15.67398276 67.7155607 -26.875 86.6875 C-27.06762756 91.40687532 -25.22745187 94.22686381 -22.1015625 97.69921875 C-18.57635737 100.84716509 -14.63625811 103.44623935 -10.63793945 105.95996094 C-7.40475386 108.09946025 -6.01211116 109.19331635 -4.95703125 112.99609375 C-4.92996094 113.88425781 -4.90289062 114.77242187 -4.875 115.6875 C-7.47465152 116.68690837 -8.53254076 116.83418375 -11.13671875 115.71875 C-13.74131822 114.0746228 -16.3241951 112.41425632 -18.875 110.6875 C-20.08349609 109.87345703 -20.08349609 109.87345703 -21.31640625 109.04296875 C-27.45544683 104.60748596 -31.4948012 99.44789759 -34.875 92.6875 C-35.1180836 87.74480019 -35.12995121 84.19740242 -32.875 79.6875 C-34.2053125 79.2234375 -34.2053125 79.2234375 -35.5625 78.75 C-40.43125433 75.71851145 -42.68676576 71.22231004 -44.49609375 65.83984375 C-47.04324792 51.37095767 -43.49711645 37.06179174 -35.875 24.6875 C-33.09072881 21.38535437 -32.49483889 20.75862905 -28.0625 20.25 C-16.00859885 20.84281481 -1.08760463 23.87909691 9.125 30.6875 C9.3125 33.8125 9.3125 33.8125 9.125 36.6875 C1.87101342 36.21182875 -4.14312223 34.39283406 -10.875 31.6875 C-11.12894531 32.38617187 -11.38289063 33.08484375 -11.64453125 33.8046875 C-11.98871094 34.71476563 -12.33289063 35.62484375 -12.6875 36.5625 C-13.19216797 37.91988281 -13.19216797 37.91988281 -13.70703125 39.3046875 C-14.875 41.6875 -14.875 41.6875 -17.875 43.6875 C-20.9375 43.5 -20.9375 43.5 -23.875 42.6875 C-25.980184 39.529724 -26.12789344 38.73352866 -26.0625 35.125 C-26.05605469 34.33996094 -26.04960937 33.55492187 -26.04296875 32.74609375 C-25.875 30.6875 -25.875 30.6875 -24.875 28.6875 C-27.58441342 29.28959187 -29.36982046 29.96505793 -30.9921875 32.28515625 C-32.06848642 34.38352197 -32.98746204 36.50279118 -33.875 38.6875 C-34.17664063 39.3475 -34.47828125 40.0075 -34.7890625 40.6875 C-38.5588247 49.98859552 -38.2193829 60.36539926 -34.4375 69.5625 C-33.00669515 72.86112575 -33.00669515 72.86112575 -30.875 75.6875 C-30.3903125 74.98625 -29.905625 74.285 -29.40625 73.5625 C-21.80959334 62.81030904 -13.12054844 55.09891846 -2.77441406 47.15039062 C0.45730342 44.66138662 3.66580348 42.14292706 6.875 39.625 C7.76952881 38.92733521 7.76952881 38.92733521 8.68212891 38.21557617 C13.09843844 35.25515792 13.09843844 35.25515792 15.41796875 30.875 C15.10392655 24.36153221 12.47745133 20.78302693 8 16.18359375 C1.13265883 10.22132336 -6.70623059 5.6417298 -14.875 1.6875 C-14.545 0.6975 -14.215 -0.2925 -13.875 -1.3125 C-8.74163851 -3.0236205 -4.80552198 -2.19382525 0 0 Z " fill="#000000" transform="translate(432.875,491.3125)"/>
<path d="M0 0 C4.30117428 0.59035725 5.33465633 2.20227216 8.1875 5.4375 C9.88131562 7.86508623 11.38811096 10.37913896 12.875 12.9375 C13.45991211 13.91396484 13.45991211 13.91396484 14.05664062 14.91015625 C16.92609323 19.76615296 19.1875 23.66321668 19.1875 29.4375 C16.57857783 29.36076699 14.77564053 28.96268465 12.80078125 27.19921875 C11.1762678 25.33436633 9.67442823 23.41428075 8.1875 21.4375 C7.53265625 20.56996094 6.8778125 19.70242188 6.203125 18.80859375 C2.27093953 13.49423031 -1.395968 8.09613112 -4.8125 2.4375 C-2.8125 0.4375 -2.8125 0.4375 0 0 Z " fill="#000000" transform="translate(269.8125,570.5625)"/>
<path d="M0 0 C2.475 0.495 2.475 0.495 5 1 C5.875 3 5.875 3 6 6 C2.42196961 12.65076642 -3.93362802 19.13455375 -11 22 C-16.33130776 22.75480512 -20.60013207 22.99990567 -25.0625 19.8125 C-26.87905602 17.17556384 -28.26174692 15.11706854 -29 12 C-27 9 -27 9 -24.625 8.5 C-22 9 -22 9 -19.6875 11.5 C-19.130625 12.325 -18.57375 13.15 -18 14 C-10.89281006 12.34165568 -7.2054687 9.9307892 -3 4 C-2.38125 3.195625 -1.7625 2.39125 -1.125 1.5625 C-0.75375 1.046875 -0.3825 0.53125 0 0 Z " fill="#000000" transform="translate(474,625)"/>
<path d="M0 0 C0.66 0 1.32 0 2 0 C5.40704412 7.13304556 7.60559879 14.07674793 9.375 21.75 C12.58441204 35.37433146 17.8072795 47.56211099 26 59 C26.92425781 60.29357422 26.92425781 60.29357422 27.8671875 61.61328125 C40.02778114 77.70531179 57.68985461 86.39731723 77.3046875 89.52734375 C99.53638812 91.94619626 122.69503887 83.32463375 140 69.5 C141.68511678 68.02075722 143.35298596 66.52155268 145 65 C145.76441406 64.32710937 146.52882813 63.65421875 147.31640625 62.9609375 C156.56004564 54.37640979 163.11523925 43.21483994 168.84375 32.07421875 C170 30 170 30 172 28 C172.99 28 173.98 28 175 28 C175 38.23762812 169.57637027 47.6354446 164 56 C164.65046955 57.67305457 165.32042449 59.33855504 166 61 C166.1953125 64.55078125 166.1953125 64.55078125 166.125 68.3125 C166.10695313 69.56675781 166.08890625 70.82101562 166.0703125 72.11328125 C166.04710937 73.06589844 166.02390625 74.01851562 166 75 C167.32 74.67 168.64 74.34 170 74 C170 72.35 170 70.7 170 69 C174.20563822 66.96213283 178.02802864 66.65023014 182.625 66.6875 C183.36572754 66.69313965 184.10645508 66.6987793 184.86962891 66.70458984 C224.03851348 67.53239008 262.88438018 87.83368503 292 113 C293.14081068 113.95836176 294.28281045 114.91530924 295.42578125 115.87109375 C301.8224179 121.24823946 307.92115906 126.76224643 313.75390625 132.7578125 C315.85923341 134.85947823 318.03367708 136.77787185 320.3125 138.6875 C323.93148368 141.79263204 326.49753744 144.93349834 329 149 C329 149.99 329 150.98 329 152 C320.8383346 151.22269853 316.04529569 146.31545742 310.625 140.6875 C306.46906721 136.44668007 302.27757292 132.37033144 297.7421875 128.53125 C295.97324969 126.97648852 294.37155565 125.33190069 292.75 123.625 C270.10734234 100.83037819 237.13933119 86.88259597 205.25 86.75 C204.02539062 86.729375 202.80078125 86.70875 201.5390625 86.6875 C193.42792355 86.65276279 185.42000513 86.78545081 178.63671875 91.71875 C176.39869321 94.83809824 174.60515464 98.10991845 172.8125 101.5 C163.32229994 118.82822021 152.20494584 132.02662842 133.5 139.375 C123.01475694 141.24736483 112.66440069 140.50868381 103.75 134.3125 C100.37140542 131.58101527 97.86481803 128.50788052 95.421875 124.9296875 C93.72522299 122.62708835 92.25520093 120.78355083 90 119 C70.42952932 116.90969606 40.83428729 128.58151471 25.33984375 140.7578125 C22.37334361 143.21815483 19.5204575 145.79098122 16.70117188 148.41796875 C14.98021124 150.01840286 13.23591432 151.58939018 11.484375 153.15625 C5.03593389 158.96121223 -0.92673393 164.96291886 -6.38671875 171.71484375 C-8.70518441 174.56244873 -10.861034 177.05167628 -14 179 C-14.66 179 -15.32 179 -16 179 C-16.53664878 175.39678676 -16.66393947 173.15968094 -14.828125 169.953125 C-12.97788773 167.53900589 -11.02666599 165.26860363 -9 163 C-8.13117188 162.01128906 -7.26234375 161.02257812 -6.3671875 160.00390625 C-1.8477505 154.92788834 2.77598029 150.07237659 7.98828125 145.6953125 C10.29707932 143.74964578 12.51978828 141.72270116 14.75 139.6875 C23.71347509 131.62583796 32.91011122 124.21886917 42.765625 117.30078125 C45.39214129 115.43240191 47.9253578 113.51632466 50.4375 111.5 C55.08761855 107.80284692 60.04702658 104.59031495 65.03686523 101.375 C68.58269533 99.23424837 68.58269533 99.23424837 71 96 C70.113125 95.938125 69.22625 95.87625 68.3125 95.8125 C49.10574362 92.98569916 31.46671545 79.62083743 19.87402344 64.59106445 C8.54898466 49.15027034 -0.50981432 28.27031716 -0.125 9 C-0.11597656 8.12988281 -0.10695313 7.25976562 -0.09765625 6.36328125 C-0.07434619 4.2420658 -0.03848579 2.12099438 0 0 Z " fill="#000000" transform="translate(394,603)"/>
<path d="M0 0 C1.01951752 0.03258408 1.01951752 0.03258408 2.05963135 0.06582642 C65.38159309 2.21524745 172.02129099 6.82884195 221.8125 50.8125 C226.5359621 55.9558254 230.09531052 60.95266847 229.875 68.125 C228.79563993 75.22296566 224.35225169 78.89187519 218.83203125 83.06640625 C206.67235613 91.54535363 190.92543078 99.44220545 175.8125 98.8125 C181.74990649 92.08343931 189.33453073 88.40477061 197.5 84.9375 C203.33999791 82.28295549 207.657549 79.51848399 210.8125 73.8125 C212.44690964 69.04889402 212.22855131 65.86167286 210.375 61.1875 C191.79398347 33.97287983 145.53405607 29.01385754 115.93359375 23.37353516 C82.60451266 17.11203851 48.94781416 12.20695317 15.09375 10.0078125 C14.09828659 9.94291122 13.10282318 9.87800995 12.07719421 9.81114197 C7.19157477 9.49731975 2.30577081 9.20328491 -2.58276367 8.9387207 C-4.37158584 8.83290939 -6.16040437 8.72703668 -7.94921875 8.62109375 C-9.15167236 8.56497421 -9.15167236 8.56497421 -10.37841797 8.50772095 C-15.86545147 8.17008733 -21.22504801 7.29683425 -26.1875 4.8125 C-26.8475 3.8225 -27.5075 2.8325 -28.1875 1.8125 C-19.30235188 -1.14921604 -9.23048524 -0.2956776 0 0 Z " fill="#000000" transform="translate(675.1875,644.1875)"/>
<path d="M0 0 C-3.96615735 5.2281165 -10.20545086 6.3361085 -16.39697266 7.41937256 C-18.80377081 7.73018549 -21.20901754 7.98248333 -23.625 8.2109375 C-24.51738876 8.30391113 -25.40977753 8.39688477 -26.32920837 8.49267578 C-28.2331595 8.69093263 -30.13750764 8.8854085 -32.04220581 9.07635498 C-37.09483136 9.58651267 -42.14303348 10.13706668 -47.19140625 10.6875 C-48.70692833 10.85238419 -48.70692833 10.85238419 -50.25306702 11.02059937 C-98.63705374 16.33525919 -158.76180658 24.16061721 -198 55 C-198.60585937 55.44085937 -199.21171875 55.88171875 -199.8359375 56.3359375 C-204.78079221 60.07595451 -208.27344154 64.89561384 -209.6875 70.9375 C-207.78253732 79.42324285 -201.79045148 84.50748925 -194.84375 89.22265625 C-187.07189579 94.08006513 -179.16851331 97.07077684 -170.41796875 99.69140625 C-166.96772603 101.01235632 -164.72842734 102.54181689 -162 105 C-162.495 106.485 -162.495 106.485 -163 108 C-168.78471567 108.16956326 -173.92839938 107.66445779 -179.5625 106.375 C-180.34117432 106.1982373 -181.11984863 106.02147461 -181.92211914 105.83935547 C-198.12600135 101.96282862 -216.49214175 94.87143011 -226.51171875 80.890625 C-228.89054623 76.58369524 -229.70727331 72.95091319 -229 68 C-227.06868642 62.60884658 -224.30415056 58.80366794 -220 55 C-218.6078125 53.63875 -218.6078125 53.63875 -217.1875 52.25 C-177.44207964 18.97278509 -110.76900207 10.47177852 -61.125 3.6875 C-60.22799377 3.56430389 -59.33098755 3.44110779 -58.40679932 3.31417847 C-48.41282558 1.95485015 -38.40870555 0.78129197 -28.3671875 -0.16796875 C-27.49168243 -0.25307205 -26.61617737 -0.33817535 -25.71414185 -0.42585754 C-17.09723872 -1.20076185 -8.54450282 -1.51902272 0 0 Z " fill="#000000" transform="translate(378,655)"/>
<path d="M0 0 C6.579418 3.91605154 9.83108051 9.52285223 13.52734375 16.04296875 C14.35090653 17.42512487 15.17795034 18.80521065 16.0078125 20.18359375 C27.0368271 38.57141879 27.0368271 38.57141879 29.52734375 46.04296875 C28.9891669 40.16982135 27.27381859 35.45437679 24.83984375 30.10546875 C24.4833374 29.30858643 24.12683105 28.5117041 23.75952148 27.69067383 C21.52924765 22.83954141 19.10725518 18.61965248 15.6484375 14.5234375 C14.10883865 12.49030871 13.68477945 10.56193995 13.52734375 8.04296875 C20.47535617 9.17733812 23.4418613 12.46335081 27.52734375 18.04296875 C29.54920707 21.52974307 31.2447037 25.12137351 32.90234375 28.79296875 C33.33933594 29.72496094 33.77632812 30.65695312 34.2265625 31.6171875 C37.27844169 38.20282155 39.31091591 43.70451409 38.52734375 51.04296875 C37.52734375 53.48046875 37.52734375 53.48046875 35.52734375 55.04296875 C32.82306757 55.66703248 30.31658933 55.8600674 27.52734375 56.04296875 C27.42421875 56.82671875 27.32109375 57.61046875 27.21484375 58.41796875 C26.52734375 61.04296875 26.52734375 61.04296875 23.52734375 63.04296875 C20.11694615 63.2561186 17.78202576 63.12786275 14.52734375 62.04296875 C14.07359375 62.84734375 13.61984375 63.65171875 13.15234375 64.48046875 C11.52734375 67.04296875 11.52734375 67.04296875 9.52734375 68.04296875 C4.03486732 68.68914245 1.21861969 67.65725889 -3.08984375 64.52734375 C-4.79311373 62.69897485 -5.25126685 61.52638028 -5.47265625 59.04296875 C-4.81265625 58.05296875 -4.15265625 57.06296875 -3.47265625 56.04296875 C0.26222152 56.54095245 2.3397201 56.91788631 5.52734375 59.04296875 C3.76387028 49.41169059 1.25758371 40.65357147 -2.97265625 31.79296875 C-3.35220459 30.99592529 -3.73175293 30.19888184 -4.12280273 29.37768555 C-8.09910375 21.04293392 -8.09910375 21.04293392 -15.47265625 16.04296875 C-17.83487857 15.80317113 -17.83487857 15.80317113 -20.22265625 15.91796875 C-21.42148437 15.94503906 -21.42148437 15.94503906 -22.64453125 15.97265625 C-23.2478125 15.99585938 -23.85109375 16.0190625 -24.47265625 16.04296875 C-23.96476563 16.53023437 -23.456875 17.0175 -22.93359375 17.51953125 C-12.02002072 28.76010272 -6.46593456 46.22665807 -6.09765625 61.85546875 C-6.15457099 65.07115146 -6.70537514 67.32452638 -8.47265625 70.04296875 C-11.66015625 71.16796875 -11.66015625 71.16796875 -15.47265625 71.04296875 C-21.27873422 67.63412469 -24.07415718 62.76218156 -26.59765625 56.73046875 C-27.26738816 55.22300438 -27.93924868 53.71648383 -28.61328125 52.2109375 C-28.92974609 51.49341309 -29.24621094 50.77588867 -29.57226562 50.03662109 C-32.3562188 43.03430494 -32.3562188 43.03430494 -37.47265625 38.04296875 C-37.61380859 39.11417969 -37.61380859 39.11417969 -37.7578125 40.20703125 C-39.86608995 48.57101719 -46.91049274 55.1695236 -53.9609375 59.671875 C-60.30320401 63.13398316 -66.24475421 64.88622399 -73.47265625 64.04296875 C-76.47265625 62.41796875 -76.47265625 62.41796875 -78.47265625 60.04296875 C-79.1965848 56.26245298 -78.86842345 54.65860661 -76.78515625 51.41796875 C-74.47059731 49.04085416 -72.17773324 46.96499714 -69.47265625 45.04296875 C-68.81265625 45.04296875 -68.15265625 45.04296875 -67.47265625 45.04296875 C-67.22515625 44.48609375 -66.97765625 43.92921875 -66.72265625 43.35546875 C-65.25489841 40.64011675 -63.40660709 38.44575616 -61.47265625 36.04296875 C-60.44582195 34.39269935 -59.43697701 32.73053008 -58.47265625 31.04296875 C-57.15265625 31.37296875 -55.83265625 31.70296875 -54.47265625 32.04296875 C-53.56499618 34.83576896 -53.12857196 37.0365222 -54.09765625 39.87109375 C-57.90578908 46.75933402 -64.37074919 51.29379707 -70.47265625 56.04296875 C-66.38057883 57.40699456 -64.66883363 56.19424361 -60.88671875 54.4140625 C-52.26673153 49.51824452 -45.27111612 41.64014093 -42.47265625 32.04296875 C-42.79513882 30.70696954 -43.12676592 29.37309986 -43.47265625 28.04296875 C-42.81265625 27.38296875 -42.15265625 26.72296875 -41.47265625 26.04296875 C-36.40770584 26.04296875 -33.81721508 28.03196959 -30.20483398 31.23291016 C-27.36287893 34.20264303 -25.64196482 37.56226036 -23.84765625 41.23046875 C-23.46939697 41.97353271 -23.0911377 42.71659668 -22.70141602 43.48217773 C-19.78709005 49.25522945 -17.02646408 55.10119475 -14.47265625 61.04296875 C-14.78496811 47.64195076 -18.5151509 33.0184775 -28.19921875 23.3125 C-30.94299639 20.86485695 -33.81967055 18.77815133 -36.91015625 16.79296875 C-38.17859375 15.92671875 -38.17859375 15.92671875 -39.47265625 15.04296875 C-39.47265625 14.38296875 -39.47265625 13.72296875 -39.47265625 13.04296875 C-37.0522149 11.83274808 -35.71439284 12.06769083 -33.03515625 12.23046875 C-30.63505908 12.31882923 -30.63505908 12.31882923 -28.47265625 12.04296875 C-26.7474544 10.15949512 -26.7474544 10.15949512 -25.47265625 8.04296875 C-22.28515625 7.29296875 -22.28515625 7.29296875 -19.47265625 7.04296875 C-19.22515625 6.09421875 -18.97765625 5.14546875 -18.72265625 4.16796875 C-17.47265625 1.04296875 -17.47265625 1.04296875 -15.71875 -0.12109375 C-10.62218465 -2.01790242 -5.06671279 -1.96104998 0 0 Z M-17.47265625 8.04296875 C-16.83199219 8.25050781 -16.19132813 8.45804688 -15.53125 8.671875 C-3.12146142 13.09205305 2.91365686 22.49370984 8.51416016 34.08544922 C10.35005024 38.0778403 12.07412618 42.11398603 13.75244141 46.17480469 C14.98346788 49.14261015 16.25755656 52.0915715 17.52734375 55.04296875 C18.51734375 55.04296875 19.50734375 55.04296875 20.52734375 55.04296875 C18.49332039 38.1746026 10.07656735 18.81210548 -2.47265625 7.04296875 C-4.79861571 5.87998902 -6.25988856 5.87696184 -8.84765625 5.85546875 C-10.00394531 5.83419922 -10.00394531 5.83419922 -11.18359375 5.8125 C-13.69100513 6.06495268 -15.30527527 6.79103408 -17.47265625 8.04296875 Z " fill="#000000" transform="translate(811.47265625,722.95703125)"/>
<path d="M0 0 C-0.8743105 5.94531143 -3.47654757 9.14776955 -8 13 C-20.02761305 20.2963719 -32.67430166 24.70464438 -46.87890625 21.3125 C-52.97202387 19.07990728 -59.00855008 15.66846037 -62.1875 9.8125 C-62.455625 9.214375 -62.72375 8.61625 -63 8 C-60.27409436 9.03223633 -57.70904447 10.15259353 -55.125 11.5078125 C-45.54438069 16.46578299 -37.36289266 17.60881088 -26.875 14.875 C-18.55988805 11.98161145 -11.26485696 8.0904448 -5.53515625 1.3203125 C-4 0 -4 0 0 0 Z " fill="#000000" transform="translate(554,736)"/>
<path d="M0 0 C2.41178991 1.19223042 4.72159635 2.44704116 7.0078125 3.86328125 C6.6778125 4.85328125 6.3478125 5.84328125 6.0078125 6.86328125 C6.58789062 6.8890625 7.16796875 6.91484375 7.765625 6.94140625 C13.16599387 7.33351224 16.82929747 8.11333187 21.0078125 11.86328125 C21.0078125 13.18328125 21.0078125 14.50328125 21.0078125 15.86328125 C16.85401916 17.89333063 13.83037183 17.91811854 9.2578125 17.61328125 C2.00689788 17.53011122 -1.68586582 19.04754403 -6.9921875 23.86328125 C-7.71664062 24.49363281 -8.44109375 25.12398437 -9.1875 25.7734375 C-13.84171111 30.11142173 -17.70386166 34.9180522 -21.4296875 40.05078125 C-21.85499756 40.63279297 -22.28030762 41.21480469 -22.71850586 41.81445312 C-25.21591228 45.36587112 -26.8313528 48.68300766 -27.9921875 52.86328125 C-22.82013934 49.31673394 -18.6848959 45.57670326 -14.66796875 40.765625 C-12.33775016 38.1203652 -9.76722778 36.02916635 -6.9921875 33.86328125 C-5.3421875 34.52328125 -3.6921875 35.18328125 -1.9921875 35.86328125 C-1.53070313 35.27160156 -1.06921875 34.67992187 -0.59375 34.0703125 C6.3020297 25.71633433 14.19965894 21.18134876 25.0078125 19.86328125 C33.04982931 19.38428965 33.04982931 19.38428965 36.0078125 20.86328125 C34.52449461 24.59451387 34.52449461 24.59451387 32.265625 25.76953125 C31.20988281 26.0634375 31.20988281 26.0634375 30.1328125 26.36328125 C29.33488281 26.60304688 28.53695312 26.8428125 27.71484375 27.08984375 C26.82152344 27.34507812 25.92820312 27.6003125 25.0078125 27.86328125 C13.22172709 31.33421549 7.19604086 35.03388162 1.0078125 45.86328125 C-1.43619095 50.71843864 -3.83527875 55.52657312 -4.9921875 60.86328125 C-1.37536916 60.30381697 0.02502003 59.10005202 2.3203125 56.30078125 C2.92488281 55.57890625 3.52945313 54.85703125 4.15234375 54.11328125 C4.76464844 53.37078125 5.37695312 52.62828125 6.0078125 51.86328125 C8.31001651 49.16801802 10.6526124 46.51221379 13.0078125 43.86328125 C13.50410156 43.26515625 14.00039063 42.66703125 14.51171875 42.05078125 C20.0926908 35.78442666 28.88672236 30.49498458 37.26953125 29.4609375 C40.0078125 29.86328125 40.0078125 29.86328125 41.5546875 31.26171875 C42.15023437 32.24011719 42.15023437 32.24011719 42.7578125 33.23828125 C48.21648829 41.21306542 54.05695761 48.18992173 63.68359375 50.65625 C66.31838324 50.89094553 68.45164845 50.50119122 71.0078125 49.86328125 C69.47917306 45.59462771 66.65674788 44.02679946 62.9453125 41.61328125 C58.70546835 38.76779589 54.56395353 35.88200954 50.6328125 32.61328125 C49.90320313 32.01 49.17359375 31.40671875 48.421875 30.78515625 C47.0078125 28.86328125 47.0078125 28.86328125 47.28125 26.12890625 C47.52101563 25.38125 47.76078125 24.63359375 48.0078125 23.86328125 C53.32212553 24.29874848 56.67466128 26.34573982 60.8203125 29.48828125 C61.42907227 29.9376001 62.03783203 30.38691895 62.66503906 30.84985352 C64.45467918 32.17646802 66.23199676 33.51824536 68.0078125 34.86328125 C68.94496094 35.56066406 69.88210938 36.25804687 70.84765625 36.9765625 C76.70614947 41.4107867 76.70614947 41.4107867 79.0078125 44.86328125 C79.5808784 50.02087437 79.5808784 50.02087437 79.0078125 52.86328125 C75.30239672 56.76898978 71.7281014 58.01781173 66.4453125 58.23828125 C55.76775459 58.06781226 48.14921371 51.18008529 41.0078125 43.86328125 C37.0078125 39.22164302 37.0078125 39.22164302 37.0078125 36.86328125 C24.38346817 42.39456614 15.95906295 49.87527355 8.02514648 60.99023438 C4.85082758 65.29940712 1.8786921 67.58305488 -2.9921875 69.86328125 C-6.23333953 69.8009514 -8.06770285 69.5813489 -10.63671875 67.5859375 C-12.85398789 64.76802484 -12.45028699 62.18483739 -12.36328125 58.71484375 C-11.72555701 53.81443641 -9.91886861 49.38754135 -7.9921875 44.86328125 C-8.84941406 45.8275 -9.70664063 46.79171875 -10.58984375 47.78515625 C-11.74430724 49.06163621 -12.89928253 50.33765342 -14.0546875 51.61328125 C-14.61607422 52.2475 -15.17746094 52.88171875 -15.75585938 53.53515625 C-19.5065277 57.65017521 -22.94079062 60.47337305 -27.9921875 62.86328125 C-31.56020114 62.86328125 -33.18622025 62.61366455 -35.8046875 60.17578125 C-37.22262277 57.41453888 -37.64333357 54.93319582 -37.9921875 51.86328125 C-39.0853125 52.06953125 -40.1784375 52.27578125 -41.3046875 52.48828125 C-44.9921875 52.86328125 -44.9921875 52.86328125 -47.9921875 50.86328125 C-49.89952331 44.18760592 -47.98653227 38.74122367 -44.90625 32.75170898 C-43.67939548 30.66228522 -42.39193936 28.63379006 -41.0546875 26.61328125 C-40.57668701 25.88455811 -40.09868652 25.15583496 -39.60620117 24.4050293 C-34.75031652 17.19802347 -29.21012617 10.91458969 -22.9921875 4.86328125 C-22.29480469 4.15945313 -21.59742188 3.455625 -20.87890625 2.73046875 C-14.82469649 -2.65940744 -7.42419894 -2.82042022 0 0 Z M-15.9921875 8.86328125 C-16.66378906 9.35183594 -17.33539063 9.84039063 -18.02734375 10.34375 C-28.47583919 19.14142342 -37.30653914 31.00499041 -41.9921875 43.86328125 C-37.06511607 43.86328125 -34.4166844 40.15703033 -30.9921875 36.86328125 C-28.47325322 34.27094842 -26.04347848 31.604617 -23.6171875 28.92578125 C-15.9354416 20.60746875 -8.44529165 13.50910532 2.0078125 8.86328125 C2.0078125 8.53328125 2.0078125 8.20328125 2.0078125 7.86328125 C-0.05014232 7.44445882 -2.11390098 7.05408844 -4.1796875 6.67578125 C-5.32824219 6.45535156 -6.47679687 6.23492188 -7.66015625 6.0078125 C-11.57846409 5.83785073 -12.90148268 6.54006689 -15.9921875 8.86328125 Z " fill="#000000" transform="translate(259.9921875,738.13671875)"/>
<path d="M0 0 C-1 3 -1 3 -2.87890625 4.17578125 C-67.02257919 31.34580865 -150.01147155 29.31501647 -218.375 31.6875 C-219.41422607 31.72375488 -220.45345215 31.76000977 -221.52416992 31.79736328 C-237.38208454 32.26980909 -253.26693234 32.06854909 -269.125 31.6875 C-269.95151062 31.66766052 -270.77802124 31.64782104 -271.62957764 31.62738037 C-375.13555161 29.01564994 -375.13555161 29.01564994 -391 20 C-391 19.34 -391 18.68 -391 18 C-378.4858803 14.544506 -366.24778435 15.88314554 -353.5 17.3125 C-292.81590486 23.90972863 -230.88846532 24.11843094 -170 20 C-169.0240387 19.93447937 -168.04807739 19.86895874 -167.0425415 19.80145264 C-121.72135935 16.72545223 -76.87717283 12.10956683 -32.41923523 2.6053009 C-30.32439376 2.15765684 -28.2283729 1.71593715 -26.13208008 1.27514648 C-23.58885412 0.74025474 -21.05656527 0.17964417 -18.5222168 -0.39819336 C-11.60455257 -1.87761951 -6.78225306 -2.12621111 0 0 Z " fill="#000000" transform="translate(734,768)"/>
</svg>
