<?xml version="1.0" encoding="UTF-8"?>
<svg version="1.1" xmlns="http://www.w3.org/2000/svg" width="1040" height="1041">
<path d="M0 0 C1.32 0.66 2.64 1.32 4 2 C3.59778173 8.70363791 1.54264044 14.36746142 -0.79296875 20.640625 C-2.14400741 24.40079731 -3.10282911 28.11225947 -4 32 C-4.33 32.66 -4.66 33.32 -5 34 C-6.65 34 -8.3 34 -10 34 C-12.29781227 30.40966832 -12.58652184 27.12711102 -12 23 C-7.48503121 4.54448323 -7.48503121 4.54448323 0 0 Z " fill="#000000" transform="translate(816,74)"/>
<path d="M0 0 C0 1.32 0 2.64 0 4 C-6.21361319 6.29002943 -12.3890833 7.46749791 -18.9375 8.25 C-19.68314209 8.34200684 -20.42878418 8.43401367 -21.19702148 8.52880859 C-24.5155841 8.89556326 -26.79476774 9.06841075 -30 8 C-30.6875 5.9375 -30.6875 5.9375 -31 4 C-23.88225755 -2.26361336 -8.69099854 -4.34549927 0 0 Z " fill="#000000" transform="translate(851,107)"/>
<path d="M0 0 C1.56428238 3.12856476 1.28007086 5.52712131 1 9 C-1.38046915 15.27578229 -5.27494529 20.17743262 -9.47021484 25.34423828 C-11.94874556 28.43370755 -13.75505315 31.23018904 -15 35 C-14.46890625 34.72285156 -13.9378125 34.44570312 -13.390625 34.16015625 C-12.68421875 33.79792969 -11.9778125 33.43570313 -11.25 33.0625 C-10.55390625 32.70285156 -9.8578125 32.34320313 -9.140625 31.97265625 C-4.80300867 30.00173204 0.31335693 28.8305211 5 30 C9.34867153 33.50161435 11.45009077 37.4055807 13.3125 42.5625 C13.56813721 43.26415283 13.82377441 43.96580566 14.0871582 44.6887207 C16.15300802 50.73905341 17.39487415 56.63652302 16 63 C14.5494821 65.51316838 13.47886806 66.34742129 11 68 C10.34 68 9.68 68 9 68 C8.84144531 68.56589844 8.68289063 69.13179688 8.51953125 69.71484375 C7.81565965 71.92756716 7.09044132 73.94841871 6 76 C3.5 77.1875 3.5 77.1875 1 77 C-1.61448122 75.16017988 -2.62761567 72.82068779 -4 70 C-9.84308083 73.62851453 -9.84308083 73.62851453 -13.25 79.375 C-13.62125 81.169375 -13.62125 81.169375 -14 83 C-16.05812855 88.92560088 -18.63795803 91.99845992 -24.09765625 95.08984375 C-28.1838678 97.04484845 -31.52122319 97.08450522 -36 97 C-36.33 96.01 -36.66 95.02 -37 94 C-33.39731049 91.74831906 -29.73514254 89.89847846 -25.8671875 88.16015625 C-22.69569806 86.18958645 -21.25222636 84.07649551 -20.40234375 80.44921875 C-20.24894531 79.53785156 -20.09554687 78.62648438 -19.9375 77.6875 C-18.17894863 70.69051253 -13.91522558 68.54017289 -8 65 C-2.65005297 61.22184398 -0.17492316 58.5273509 1 52 C-0.64609493 52.89535257 -2.29185868 53.79131399 -3.9375 54.6875 C-4.94039062 55.23019531 -5.94328125 55.77289063 -6.9765625 56.33203125 C-8.84263142 57.36150338 -10.69519731 58.41647269 -12.5234375 59.51171875 C-16.8532648 62.09040429 -19.78440995 63.66866539 -25 63 C-21.50164156 59.29394681 -17.99149936 56.47800508 -13.6875 53.6875 C-12.61886719 52.99011719 -11.55023437 52.29273438 -10.44921875 51.57421875 C-9.64097656 51.05472656 -8.83273437 50.53523438 -8 50 C-9.65 50 -11.3 50 -13 50 C-13 48.68 -13 47.36 -13 46 C-9.9473937 45.11672271 -7.17494823 44.8366993 -4 44.8125 C-2.7315625 44.79123047 -2.7315625 44.79123047 -1.4375 44.76953125 C1.29930943 45.02830009 2.77319866 45.37877419 5 47 C6.23046875 49.49609375 6.23046875 49.49609375 7.1875 52.4375 C7.51105469 53.40558594 7.83460938 54.37367188 8.16796875 55.37109375 C8.44253906 56.23863281 8.71710938 57.10617188 9 58 C9.33 58.99 9.66 59.98 10 61 C10.33 60.67 10.66 60.34 11 60 C10.764024 52.92072008 8.75237637 47.24725722 6.05859375 40.72265625 C5 38 5 38 5 36 C-4.02515031 36.18050301 -13.2388719 40.57239622 -19.86328125 46.609375 C-22.00936683 48.79989178 -22.00936683 48.79989178 -23 51 C-23.66 51 -24.32 51 -25 51 C-25.93075824 37.63327746 -21.68247533 29.10393403 -13.4375 19.04296875 C-11.0876891 16.10947085 -9.03598471 13.15294855 -7 10 C-7.33 9.67 -7.66 9.34 -8 9 C-12.68439981 13.37210649 -16.73991961 18.03156855 -20.6875 23.0625 C-21.15067627 23.6517627 -21.61385254 24.24102539 -22.09106445 24.84814453 C-26.82845546 30.95063311 -30.54611185 36.77014285 -33.171875 44.046875 C-33.45798645 44.81694885 -33.7440979 45.58702271 -34.03887939 46.38043213 C-34.94994807 48.83430894 -35.85096182 51.29169249 -36.75 53.75 C-41.15969679 65.77932187 -45.89096021 77.54865429 -51.20178223 89.21008301 C-52.19997495 91.4484222 -53.11637462 93.7142213 -54 96 C-52.91332031 96.37125 -52.91332031 96.37125 -51.8046875 96.75 C-48.70917599 98.12961516 -46.67560536 99.77517289 -44.125 102 C-39.73707455 105.68917349 -35.24051216 108.93721926 -30.4375 112.0625 C-8.27198931 126.55233133 -8.27198931 126.55233133 -4 136 C-8.40062427 134.71027359 -11.79105598 133.03397397 -15.5625 130.4375 C-16.60664062 129.72464844 -17.65078125 129.01179687 -18.7265625 128.27734375 C-20.88993396 126.77227745 -23.05142963 125.2645109 -25.2109375 123.75390625 C-30.71879186 119.90640993 -36.2407395 116.12431017 -41.9375 112.5625 C-42.95714844 111.92441406 -43.97679687 111.28632813 -45.02734375 110.62890625 C-49.36448426 108.25231283 -53.65802714 106.84660851 -58.5625 106.25 C-59.28566406 106.15203125 -60.00882813 106.0540625 -60.75390625 105.953125 C-63.7351397 106.01534205 -65.39769463 106.50244691 -68 108 C-69.6343464 110.21349327 -70.90589968 112.21918887 -72.1875 114.625 C-72.57131836 115.33172852 -72.95513672 116.03845703 -73.35058594 116.76660156 C-86.21628492 141.13550433 -94.51620515 168.13285497 -103.5078125 194.11328125 C-104.08806059 195.78428683 -104.6683821 197.45526691 -105.2487793 199.1262207 C-106.34632993 202.28674807 -107.43229571 205.45091277 -108.51098633 208.61791992 C-114.43266759 225.83083634 -120.95297093 241.36814098 -138.00048828 250.01464844 C-153.12124763 257.18131254 -153.12124763 257.18131254 -160.25 257.0625 C-162.10625 257.0315625 -162.10625 257.0315625 -164 257 C-164 255.68 -164 254.36 -164 253 C-162.9790625 252.5978125 -162.9790625 252.5978125 -161.9375 252.1875 C-144.10372335 244.97810093 -129.30039682 238.80371326 -121.01235962 220.40222168 C-117.61941748 212.35113094 -114.91893244 204.00975234 -112.09390259 195.74737549 C-110.02654612 189.70954139 -107.92266334 183.68451158 -105.81640625 177.66015625 C-105.40241074 176.47556824 -104.98841522 175.29098022 -104.56187439 174.07049561 C-97.52526319 154.01649867 -90.36111153 133.61332426 -80 115 C-79.39671875 113.89140625 -78.7934375 112.7828125 -78.171875 111.640625 C-71.06273813 98.9678158 -71.06273813 98.9678158 -67 96 C-65.58074219 95.98453125 -65.58074219 95.98453125 -64.1328125 95.96875 C-60.95818704 95.33446343 -60.95818704 95.33446343 -59.69458008 93.16479492 C-58.3071258 90.38300005 -57.10709897 87.56791542 -55.9375 84.6875 C-55.47633789 83.60259277 -55.01517578 82.51768555 -54.54003906 81.39990234 C-51.69995657 74.57783876 -49.12471958 67.6750629 -46.64453125 60.71484375 C-46.36161728 59.92194443 -46.07870331 59.1290451 -45.78721619 58.31211853 C-44.39122657 54.3842961 -43.01812058 50.45041253 -41.67944336 46.50268555 C-37.60963238 34.67078504 -32.21153783 24.99609812 -23.8125 15.625 C-22.79747449 14.47197229 -21.78313761 13.31833796 -20.76953125 12.1640625 C-20.05555176 11.358479 -20.05555176 11.358479 -19.32714844 10.53662109 C-18.13115477 9.1518558 -17.00040276 7.71138478 -15.87890625 6.265625 C-11.69615869 1.22197929 -6.60974227 -2.41819839 0 0 Z M2 64 C1.34 64.66 0.68 65.32 0 66 C0.32198966 69.09926819 0.32198966 69.09926819 1 72 C1.66 72 2.32 72 3 72 C3 69.36 3 66.72 3 64 C2.67 64 2.34 64 2 64 Z " fill="#000000" transform="translate(783,126)"/>
<path d="M0 0 C11.86727734 0.94773395 20.43503427 8.43035823 28.07421875 17.1328125 C36.09167318 27.39192296 39.25306985 38.03172209 37.78515625 51.07421875 C35.63093248 63.07182996 30.0488721 72.59957603 20.3515625 79.953125 C14.50769784 83.91282171 8.37350936 87.38089684 2.25634766 90.89697266 C-9.17359692 96.82892218 -9.17359692 96.82892218 -16.3671875 106.92578125 C-17.35572457 112.10047019 -16.48464244 116.55454789 -13.75 121.0546875 C-11.54300696 123.90858936 -9.19389754 126.63599669 -6.77441406 129.3112793 C-2.82434088 133.71500422 0.33446988 137.56282616 0.125 143.7421875 C-0.72285079 146.95190835 -1.11735979 148.15918655 -3.75 150.0546875 C-7.26441118 151.81189309 -11.00179726 150.82602183 -14.75 150.0546875 C-19.4455538 148.34072109 -23.29421903 145.66580986 -27.3125 142.7421875 C-30.54182909 140.54468204 -31.56707683 140.06353862 -35.625 139.8671875 C-38.82262755 140.81321222 -38.82262755 140.81321222 -40.6875 143.1796875 C-42.02162229 146.78966547 -42.22014636 149.22635282 -41.75 153.0546875 C-39.84643013 156.32779303 -39.84643013 156.32779303 -37.75 159.0546875 C-37.75 159.7146875 -37.75 160.3746875 -37.75 161.0546875 C-32.79752042 162.98736246 -27.98382872 164.40822818 -22.85546875 162.26171875 C-19.77889931 160.57122481 -17.03114478 158.73838724 -14.75 156.0546875 C-13.75 159.0546875 -13.75 159.0546875 -14.9375 162.6171875 C-16.69478806 165.9499752 -17.25915788 166.97132271 -20.75 168.0546875 C-20.42 168.9003125 -20.09 169.7459375 -19.75 170.6171875 C-17.71584211 177.60960523 -18.73918006 183.56008357 -21.75 190.0546875 C-26.2120167 197.74188117 -34.23615632 201.31263254 -42.4453125 203.90625 C-61.13352353 208.09017784 -79.75618678 201.39232513 -95.75 192.0546875 C-99.00408 189.94741983 -101.88724554 187.66452944 -104.75 185.0546875 C-105.58015625 184.31605469 -106.4103125 183.57742188 -107.265625 182.81640625 C-119.15466406 171.65708366 -124.98369126 158.88525478 -125.80859375 142.703125 C-125.60681395 130.13896962 -121.25152573 116.98129699 -112.58203125 107.6484375 C-104.47768363 100.59817347 -96.4686421 96.68507915 -85.75 97.0546875 C-86.03875 96.39726562 -86.3275 95.73984375 -86.625 95.0625 C-91.22386191 83.27791636 -91.83663749 69.68410676 -87.1328125 57.79296875 C-80.61499925 44.88622556 -70.42737369 35.77472234 -56.75 31.0546875 C-44.16656223 27.52848121 -34.09497915 27.74406321 -21.44580078 29.97143555 C-10.99895739 32.1197204 -10.99895739 32.1197204 -1.125 29.4921875 C2.55655383 22.96579661 0.91051052 17.84047596 -0.9765625 10.94140625 C-1.86600778 7.62170896 -2.44599717 4.47471936 -2.75 1.0546875 C-1.75 0.0546875 -1.75 0.0546875 0 0 Z M5.25 8.0546875 C5.82424947 13.79305917 5.82424947 13.79305917 8.6953125 18.6015625 C9.89858553 19.51885584 11.10448751 20.43270725 12.3125 21.34375 C20.49030357 28.56527815 25.11525509 40.23829251 26 50.8671875 C26.20007541 54.60041284 26.27763928 58.31647539 26.25 62.0546875 C30.4166494 57.8880381 31.04725604 50.85041973 31.6875 45.1796875 C31.05245398 32.29354529 24.81514808 23.14657991 15.6875 14.6796875 C12.36895131 11.82709941 9.29246467 9.71313455 5.25 8.0546875 Z " fill="#000000" transform="translate(570.75,164.9453125)"/>
<path d="M0 0 C9.32981098 1.48331096 15.44199449 6.79146774 22.43603516 12.68701172 C24.59262756 14.49752592 26.79448272 16.24965514 29 18 C29.66 15.69 30.32 13.38 31 11 C30.18789063 10.61714844 30.18789063 10.61714844 29.359375 10.2265625 C26.54508212 8.76350296 23.91789308 7.09007412 21.25 5.375 C20.26515625 4.74335938 19.2803125 4.11171875 18.265625 3.4609375 C17.14414062 2.73777344 17.14414062 2.73777344 16 2 C16.33 1.34 16.66 0.68 17 0 C24.18379838 0.26606661 29.24770552 2.70181713 35 7 C37.47717167 10.71575751 37.30345742 12.59986738 37 17 C36.649375 17.825 36.29875 18.65 35.9375 19.5 C34.58052716 23.11859425 35.07667565 25.24514763 36 29 C36.75604249 30.62126079 37.55118524 32.22460327 38.375 33.8125 C44.77691954 46.24521331 46.22072016 60.23597936 42.875 73.9375 C37.18945197 90.96782212 26.60375289 104.40215914 10.58984375 112.78515625 C6.65549439 114.62359505 2.67639694 116.3115298 -1.33984375 117.9609375 C-4.83102652 119.19864903 -4.83102652 119.19864903 -7 122 C-7.06950541 123.54023996 -7.08452357 125.08334988 -7.0625 126.625 C-7.05347656 127.44226563 -7.04445313 128.25953125 -7.03515625 129.1015625 C-7.02355469 129.72804688 -7.01195312 130.35453125 -7 131 C-6.33871094 131.25007812 -5.67742188 131.50015625 -4.99609375 131.7578125 C-1.26579293 133.30440397 2.32619435 135.07102374 5.9375 136.875 C6.97293945 137.38353516 6.97293945 137.38353516 8.02929688 137.90234375 C19.24782986 143.49565972 19.24782986 143.49565972 21 147 C17.39190497 151.75612527 12.52563577 152.60804595 7 154 C7.32613281 154.680625 7.65226563 155.36125 7.98828125 156.0625 C15.24724135 172.16497196 16.18736067 189.46244984 16.18530273 206.90966797 C16.18752587 209.02460834 16.20586156 211.13905513 16.22460938 213.25390625 C16.22753778 214.60676907 16.22952627 215.95963434 16.23046875 217.3125 C16.23457764 218.52550781 16.23868652 219.73851562 16.24291992 220.98828125 C16 224 16 224 14 227 C11.79959812 223.69939717 11.74214967 222.63587057 11.69140625 218.79296875 C11.66844482 217.74197998 11.6454834 216.69099121 11.62182617 215.6081543 C11.60224854 214.47933838 11.5826709 213.35052246 11.5625 212.1875 C11.06457322 194.73825569 10.4039781 175.72966796 2.40234375 159.82421875 C0.91968102 156.8382434 0.38124741 155.2705494 1 152 C3.42082645 149.57917355 5.65510004 148.59730356 9 148 C9 147.34 9 146.68 9 146 C7.49373047 145.29037109 7.49373047 145.29037109 5.95703125 144.56640625 C-25.18816211 129.6177853 -25.18816211 129.6177853 -28.765625 119.92578125 C-29 118 -29 118 -28 116 C-25.84545898 115.34912109 -25.84545898 115.34912109 -22.99609375 114.7734375 C-21.95267822 114.55067139 -20.9092627 114.32790527 -19.83422852 114.09838867 C-18.71330811 113.85967041 -17.5923877 113.62095215 -16.4375 113.375 C-0.80404937 109.81402887 11.72624997 104.83527781 23 93 C23.56976562 92.43796875 24.13953125 91.8759375 24.7265625 91.296875 C34.98767602 80.45692943 37.1750065 67.24199311 38 53 C36.329375 53.7425 36.329375 53.7425 34.625 54.5 C28.74600116 56.70331928 22.85842643 56.91469646 16.875 55 C16.25625 54.67 15.6375 54.34 15 54 C15 52.35 15 50.7 15 49 C15.7734375 49.10699219 16.546875 49.21398437 17.34375 49.32421875 C24.22340385 50.1160601 28.73803598 50.01055962 35 47 C34.21756188 35.0026155 26.61862863 26.60979003 19 18 C16.36056358 18.47989753 14.20971665 18.89214572 11.8125 20.125 C4.43938689 22.41885741 -2.38743464 19.75611565 -9.06640625 16.546875 C-11 15 -11 15 -11.77734375 12.328125 C-11.85082031 11.55984375 -11.92429687 10.7915625 -12 10 C-10.4375 9.25 -10.4375 9.25 -8 9 C-5.49974974 10.12483419 -3.3320943 11.53164433 -1 13 C1.64458379 14.32229189 3.67761301 14.09677194 6.625 14.0625 C7.62789062 14.05347656 8.63078125 14.04445313 9.6640625 14.03515625 C10.82035156 14.01775391 10.82035156 14.01775391 12 14 C10.86314577 10.58943731 9.84668031 9.80065835 7.125 7.5625 C4.31138586 5.24204701 2.09258206 2.99410327 0 0 Z " fill="#000000" transform="translate(596,252)"/>
<path d="M0 0 C-0.42767211 7.82445564 -3.2961405 14.50519148 -6.25 21.6875 C-6.79051844 23.0178742 -7.33096303 24.34827841 -7.87133789 25.67871094 C-20.758065 57.23090303 -35.35882721 87.81777205 -53 117 C-53.47066895 117.78648926 -53.94133789 118.57297852 -54.42626953 119.38330078 C-61.87759773 131.81131601 -70.13795455 143.12306281 -79.98046875 153.79296875 C-81.73904907 155.71482152 -83.40819775 157.67647489 -85.0625 159.6875 C-96.30265483 172.81624453 -113.13784453 185.91003037 -130 190 C-129.34 189.401875 -128.68 188.80375 -128 188.1875 C-125.6626154 186.12498166 -125.6626154 186.12498166 -126 183 C-124.35449219 181.640625 -124.35449219 181.640625 -122.046875 180.25 C-121.20584229 179.72986328 -120.36480957 179.20972656 -119.49829102 178.67382812 C-118.13788696 177.8452832 -118.13788696 177.8452832 -116.75 177 C-108.25881025 171.65173548 -101.10094018 166.12083077 -94 159 C-92.92681795 157.98190398 -91.85120428 156.96636632 -90.7734375 155.953125 C-72.16600094 138.24358322 -60.07837366 115.40921863 -48 93 C-47.54157715 92.15163574 -47.0831543 91.30327148 -46.61083984 90.42919922 C-34.07025279 67.10922431 -23.19942656 43.23552909 -13.66845703 18.54980469 C-13.24508308 17.46380478 -13.24508308 17.46380478 -12.81315613 16.35586548 C-12.28774614 15.00671758 -11.7681394 13.65528754 -11.2558136 12.30111694 C-6.45303109 0 -6.45303109 0 0 0 Z " fill="#000000" transform="translate(780,266)"/>
<path d="M0 0 C1.32 0 2.64 0 4 0 C3.61459252 7.26278981 1.13074434 12.59210266 -2.1875 19 C-2.71996338 20.04526855 -3.25242676 21.09053711 -3.80102539 22.16748047 C-9.2361165 32.70028502 -15.18783366 42.91404522 -21.26513672 53.0859375 C-22.95434592 55.92331451 -24.62317375 58.77160533 -26.28515625 61.625 C-36.02928031 78.3247842 -46.30532432 94.6628579 -57.125 110.6875 C-57.65738281 111.48373779 -58.18976563 112.27997559 -58.73828125 113.1003418 C-59.23972656 113.83422119 -59.74117187 114.56810059 -60.2578125 115.32421875 C-60.90967529 116.2846106 -60.90967529 116.2846106 -61.57470703 117.2644043 C-64.69282851 121.06137682 -67.5847443 122.36307623 -72.359375 123.26171875 C-84.68501093 125.35173887 -84.68501093 125.35173887 -94.078125 132.6640625 C-95.81265945 136.01744221 -97.07036068 139.53824266 -98.28417969 143.10839844 C-104.16988694 158.66176127 -124.80322195 166.17681088 -138.6875 172.9375 C-140.98887818 174.06683759 -143.28905908 175.19855353 -145.58833313 176.33216858 C-147.00255341 177.0285307 -148.41816664 177.72207342 -149.83537292 178.41233826 C-152.69135109 179.81113712 -155.3488419 181.23256126 -158 183 C-157.5153125 183.30292969 -157.030625 183.60585938 -156.53125 183.91796875 C-155.1217193 184.79892543 -153.71431049 185.68328268 -152.30859375 186.5703125 C-150.79549703 187.50735717 -149.26693405 188.4199726 -147.72265625 189.3046875 C-147.00980469 189.71976563 -146.29695312 190.13484375 -145.5625 190.5625 C-144.90378906 190.93503906 -144.24507812 191.30757812 -143.56640625 191.69140625 C-141.61545094 193.32125669 -141.37072996 194.53020742 -141 197 C-155.58080523 196.75698658 -167.30657521 185.8850888 -177.03515625 175.90234375 C-177.74188477 175.17845459 -178.44861328 174.45456543 -179.17675781 173.70874023 C-180.57877718 172.2588009 -181.96799187 170.79634729 -183.34277344 169.32055664 C-184.3119873 168.31109985 -184.3119873 168.31109985 -185.30078125 167.28125 C-186.15410034 166.36956055 -186.15410034 166.36956055 -187.0246582 165.43945312 C-189.76441145 163.44296504 -191.61177975 163.07024934 -195 163 C-198.13439845 164.41893418 -198.13439845 164.41893418 -201.19140625 166.671875 C-201.76972702 167.0655275 -202.34804779 167.45917999 -202.94389343 167.86476135 C-204.18273302 168.70880397 -205.4167778 169.55991973 -206.6463623 170.41738892 C-209.87699984 172.66419163 -213.15077707 174.8459258 -216.42578125 177.02734375 C-217.07574066 177.46116867 -217.72570007 177.89499359 -218.39535522 178.34196472 C-234.82633647 189.23147686 -254.61684746 200.31373778 -274.8125 200.0625 C-275.50537109 200.05798828 -276.19824219 200.05347656 -276.91210938 200.04882812 C-278.60811068 200.03713156 -280.30406703 200.01919924 -282 200 C-279.08235 198.0549 -277.37462715 197.54723683 -274 197 C-276.76615598 195.15589602 -278.90555315 194.29077579 -282 193.1875 C-297.04521487 186.99134267 -309.93320697 175.730669 -322.30957031 165.39355469 C-325.33636788 162.89832642 -328.46169331 160.5326043 -331.59375 158.171875 C-332.0578125 157.78515625 -332.521875 157.3984375 -333 157 C-333 156.67 -333 156.34 -333 156 C-327.29290416 156.40506637 -323.75602123 158.07608434 -319.3125 161.5 C-318.70583496 161.94851318 -318.09916992 162.39702637 -317.47412109 162.85913086 C-314.61366951 164.98223321 -311.79783327 167.15759041 -308.98828125 169.34765625 C-297.56202862 178.18624458 -284.28908623 186.79593726 -270 190 C-268.98292969 190.23203125 -267.96585938 190.4640625 -266.91796875 190.703125 C-247.1405308 193.60243527 -229.60751128 179.67898064 -214.31591797 168.66259766 C-210.3317742 165.80238059 -206.30041325 163.01527028 -202.25 160.25 C-201.52321045 159.73638916 -200.7964209 159.22277832 -200.04760742 158.69360352 C-195.73621894 155.75418036 -192.38124681 154.10052142 -187 154 C-184.5625 155.8125 -184.5625 155.8125 -183 158 C-183 158.66 -183 159.32 -183 160 C-166.66195009 154.19860978 -166.66195009 154.19860978 -153 144 C-153.62865967 144.17128418 -154.25731934 144.34256836 -154.9050293 144.51904297 C-184.2396147 152.46645374 -184.2396147 152.46645374 -198 152 C-192.46266583 145.89320443 -183.63334073 144.16931997 -175.9375 142.125 C-169.15785345 140.25207294 -162.47251657 138.25625278 -155.875 135.8125 C-155.21878662 135.5748291 -154.56257324 135.3371582 -153.88647461 135.09228516 C-148.70070784 133.11695243 -146.79756191 131.67803867 -144.421875 126.6796875 C-143.57209275 124.76867483 -142.74246784 122.85641079 -141.95703125 120.91796875 C-141.109375 119.0546875 -141.109375 119.0546875 -139 116 C-135.265625 115.0703125 -135.265625 115.0703125 -132 115 C-129.03162219 119.02167317 -127.47610659 122.00088076 -127 127 C-118.80833747 125.75648991 -110.98703777 123.69333966 -103.06689453 121.27856445 C-101.13682473 120.69109915 -99.20352231 120.11542226 -97.26953125 119.54101562 C-93.49828641 118.40270832 -89.74814752 117.21200711 -86 116 C-84.81374023 115.63624268 -83.62748047 115.27248535 -82.40527344 114.89770508 C-74.51149638 112.2432955 -70.46722393 109.29461603 -66 102.3125 C-64.82174547 100.5962643 -63.64335697 98.88012057 -62.46484375 97.1640625 C-61.88718262 96.29813477 -61.30952148 95.43220703 -60.71435547 94.54003906 C-58.60685466 91.41750439 -56.38994569 88.38674493 -54.15576172 85.35424805 C-38.63300305 64.24415256 -24.04430369 42.60444207 -12.3215332 19.14086914 C-8.96878071 12.515484 -5.30500703 5.30500703 0 0 Z M-136 125 C-136.29132813 125.58265625 -136.58265625 126.1653125 -136.8828125 126.765625 C-137.75729636 128.51459272 -138.63808919 130.26041307 -139.5234375 132.00390625 C-140.51232035 134.01044896 -141.45507261 136.04035386 -142.3515625 138.08984375 C-145.69256628 145.49044709 -149.13620445 149.69352183 -156 154 C-157.22976563 154.79857422 -157.22976563 154.79857422 -158.484375 155.61328125 C-163.78068567 158.92758746 -169.22409366 161.62825102 -175 164 C-170.93866463 169.59363406 -166.6208599 174.85963514 -162 180 C-158.58424178 178.35355539 -155.33752522 176.47193895 -152.0625 174.5625 C-146.790151 171.50703184 -141.43653544 168.6492819 -136.01782227 165.86206055 C-123.99518891 159.75367667 -123.99518891 159.75367667 -113 152 C-112.37480469 151.48566406 -111.74960937 150.97132813 -111.10546875 150.44140625 C-105.80154616 145.62280991 -101.99036771 139.48240895 -99 133 C-99.495 132.01 -99.495 132.01 -100 131 C-104.09415802 132.11835039 -108.18755761 133.23942341 -112.28027344 134.36303711 C-113.6729711 134.74497389 -115.06587403 135.126163 -116.45898438 135.5065918 C-118.46017897 136.05321439 -120.46062245 136.60251251 -122.4609375 137.15234375 C-123.66540527 137.48226318 -124.86987305 137.81218262 -126.11083984 138.15209961 C-128.90874155 138.88051868 -128.90874155 138.88051868 -131 140 C-131.99 142.31 -132.98 144.62 -134 147 C-134 139.74 -134 132.48 -134 125 C-134.66 125 -135.32 125 -136 125 Z " fill="#000000" transform="translate(902,325)"/>
<path d="M0 0 C0.474375 0.639375 0.94875 1.27875 1.4375 1.9375 C1.1075 2.9275 0.7775 3.9175 0.4375 4.9375 C-1.46708984 4.97617187 -1.46708984 4.97617187 -3.41015625 5.015625 C-24.731256 5.63567845 -43.00082833 10.47546529 -58.18554688 26.41210938 C-65.58844804 34.61305379 -69.94006881 43.1724924 -72.5625 53.9375 C-72.97272689 55.37685099 -73.38800217 56.81479306 -73.8125 58.25 C-74.06 59.136875 -74.3075 60.02375 -74.5625 60.9375 C-76.87583526 59.27479028 -78.35396846 57.90396347 -78.96875 55.0546875 C-79.55607742 41.39932499 -70.97310819 29.40497573 -62.25 19.6875 C-49.51760641 6.00093762 -32.78133071 -1.73215673 -14.171875 -2.99609375 C-4.04268997 -3.25387241 -4.04268997 -3.25387241 0 0 Z " fill="#000000" transform="translate(843.5625,362.0625)"/>
<path d="M0 0 C1.35439668 2.70879335 1.06501451 5.00933268 1 8 C-0.98 8.99 -0.98 8.99 -3 10 C-4.98 8.35 -6.96 6.7 -9 5 C-8.625 2.5625 -8.625 2.5625 -8 0 C-5.09660535 -1.45169732 -3.09125158 -0.72348441 0 0 Z " fill="#000000" transform="translate(680,378)"/>
<path d="M0 0 C4.38672083 0.45234771 6.9171761 3.39775546 9.9375 6.3125 C15.81475169 11.89404092 21.18179577 16.407382 28.6875 19.625 C29.39068359 19.93058838 30.09386719 20.23617676 30.81835938 20.55102539 C36.10288795 22.77854379 41.28283475 24.3265839 47 25 C46.45859375 23.71416016 46.45859375 23.71416016 45.90625 22.40234375 C41.2970123 11.0456942 41.2970123 11.0456942 42 5 C46.95255272 9.56241727 49.72611315 15.19031239 53 21 C53.515625 21.84949219 54.03125 22.69898438 54.5625 23.57421875 C57.13452914 27.87798341 58.66463235 30.81586769 58 36 C50.56905775 39.3243689 43.62763669 37.83649139 36.25 35.0625 C25.75997737 30.3777666 16.76692248 23.27659692 8.90234375 14.97265625 C7.20050268 13.20791346 5.47108048 11.65827209 3.5625 10.125 C1 8 1 8 -1 5 C-0.625 2.3125 -0.625 2.3125 0 0 Z " fill="#000000" transform="translate(539,387)"/>
<path d="M0 0 C1 3 1 3 0 6 C-1.485 6.14695312 -1.485 6.14695312 -3 6.296875 C-16.10816362 7.71625456 -16.10816362 7.71625456 -26.3125 15.5 C-29.78007629 20.48877461 -30.88094859 26.11025572 -32 32 C-33.32 32 -34.64 32 -36 32 C-37.89934964 28.20130073 -36.88425299 24.02582262 -36 20 C-32.47368823 11.20203023 -27.78730228 5.56462622 -19.5 1.125 C-13.35323794 -0.96050855 -6.41024045 -0.22536002 0 0 Z " fill="#000000" transform="translate(833,390)"/>
<path d="M0 0 C1.87109375 0.33203125 1.87109375 0.33203125 3.80859375 1.70703125 C5.99389908 5.04926294 6.11544851 7.34090357 5.87109375 11.33203125 C4.88109375 12.81703125 4.88109375 12.81703125 3.87109375 14.33203125 C-0.39660103 14.08099038 -2.6272813 13.73551219 -6.00390625 11.01953125 C-9.12890625 7.06732537 -9.12890625 7.06732537 -9.12890625 4.33203125 C-7.24617869 -0.1865149 -4.43319936 -0.21962639 0 0 Z " fill="#000000" transform="translate(542.12890625,443.66796875)"/>
<path d="M0 0 C2.97819304 0.09205324 4.02122686 0.31014179 6.625 1.9375 C8.67144269 5.26296936 8.54357482 7.53806413 8.125 11.375 C7.135 12.86 7.135 12.86 6.125 14.375 C0.10803301 14.13904051 0.10803301 14.13904051 -2.453125 12.1484375 C-4.59848313 9.74415684 -5.80479315 7.81630021 -6.3125 4.625 C-5.50989279 0.49730578 -4.07554983 0.39440805 0 0 Z " fill="#000000" transform="translate(586.875,520.625)"/>
<path d="M0 0 C0.99 0.495 0.99 0.495 2 1 C-2.70284876 11.3258201 -8.27321192 20.6946408 -14.6484375 30.0769043 C-37.9688319 64.40176518 -58.23593771 101.8054535 -72 141 C-72.55228271 142.56693604 -72.55228271 142.56693604 -73.11572266 144.16552734 C-74.26850701 147.47752605 -75.3897011 150.7985376 -76.5 154.125 C-76.8508667 155.14392334 -77.2017334 156.16284668 -77.56323242 157.21264648 C-80.08808307 164.99224306 -81.76891932 172.79881661 -78.5 180.5625 C-78.005 181.366875 -77.51 182.17125 -77 183 C-77 183.66 -77 184.32 -77 185 C-76.14148438 185.27972656 -75.28296875 185.55945313 -74.3984375 185.84765625 C-72.22268297 186.5854121 -70.05912895 187.36086573 -67.9140625 188.18359375 C-55.67476824 192.84964299 -43.10842143 195.39244676 -30 196 C-28.9790625 196.05285156 -27.958125 196.10570312 -26.90625 196.16015625 C-3.81051252 196.75835666 19.68343491 192.88677655 41 184 C40.2874707 183.70577148 39.57494141 183.41154297 38.84082031 183.10839844 C5.99232711 169.48984972 5.99232711 169.48984972 -7.625 162 C-8.27500977 161.65098633 -8.92501953 161.30197266 -9.59472656 160.94238281 C-13.81156178 158.5304187 -13.81156178 158.5304187 -14.73828125 155.921875 C-14.82464844 155.28765625 -14.91101563 154.6534375 -15 154 C-17.47906969 151.2704415 -17.47906969 151.2704415 -20 149 C-12.63687821 150.94844733 -6.00517213 153.69255472 0.8125 157.0625 C1.81168457 157.54710693 2.81086914 158.03171387 3.84033203 158.53100586 C7.80050865 160.45170715 11.7531653 162.38750399 15.70361328 164.328125 C66.26048657 189.66106447 66.26048657 189.66106447 120.8671875 190.484375 C150.31647644 180.22984084 176.4974843 163.55832092 202.18237305 146.20458984 C203.1444165 145.55570801 204.10645996 144.90682617 205.09765625 144.23828125 C205.94851807 143.66118408 206.79937988 143.08408691 207.67602539 142.48950195 C213.27477132 138.90110518 213.27477132 138.90110518 216.75 139.375 C217.4925 139.58125 218.235 139.7875 219 140 C215.20425952 149.21367935 202.6891971 155.06206014 194.6875 160.25 C194.1224173 160.61717133 193.55733459 160.98434265 192.97512817 161.36264038 C158.52540847 183.7090731 124.29492534 204.88833445 82.20825195 196.14135742 C73.6332113 194.26266374 65.28239429 191.9006895 57 189 C57 193.29 57 197.58 57 202 C58.02053467 202.23799316 59.04106934 202.47598633 60.0925293 202.72119141 C147.91633789 223.25868105 147.91633789 223.25868105 158.79003906 236.11669922 C160.86477891 238.25604556 160.86477891 238.25604556 163.72680664 238.22460938 C164.75668701 238.09892578 165.78656738 237.97324219 166.84765625 237.84375 C168.58039795 237.65232422 168.58039795 237.65232422 170.34814453 237.45703125 C171.55325684 237.30621094 172.75836914 237.15539062 174 237 C176.3525012 236.75687444 178.70537385 236.51731781 181.05859375 236.28125 C182.25750244 236.15403564 183.45641113 236.02682129 184.69165039 235.89575195 C198.45392389 234.44175695 212.16136071 233.32164182 226 233 C226.79970215 232.97808594 227.5994043 232.95617187 228.42333984 232.93359375 C288.99250175 231.45539578 366.40373737 239.41613517 415 279 C415.64710938 279.474375 416.29421875 279.94875 416.9609375 280.4375 C423.8527634 285.73427449 429.784457 294.33925611 431 303 C431.28604507 335.60913746 403.89686983 364.68313886 382.68359375 386.4453125 C374.80809237 394.45526758 366.92811497 402.15866887 358 409 C356.65346602 410.07236061 355.30855333 411.14675868 353.96484375 412.22265625 C296.93537245 457.62317801 201.81235868 508.28917208 127 505 C123.9375 504.5 123.9375 504.5 122 504 C122.33 503.01 122.66 502.02 123 501 C124.77368164 500.26733398 124.77368164 500.26733398 127.16015625 499.74609375 C128.07853271 499.53678223 128.99690918 499.3274707 129.94311523 499.11181641 C130.97251221 498.88929199 132.00190918 498.66676758 133.0625 498.4375 C135.34685502 497.9149451 137.63067247 497.39003684 139.9140625 496.86328125 C141.19055664 496.57146973 142.46705078 496.2796582 143.78222656 495.97900391 C167.39962192 490.53244613 191.03283706 484.78626408 214 477 C214.81436523 476.72655762 215.62873047 476.45311523 216.46777344 476.17138672 C241.5567823 467.57947583 265.47502227 452.90710104 285 435 C285.96550781 434.12859375 286.93101562 433.2571875 287.92578125 432.359375 C310.98986322 410.53941363 323.34546706 375.28097005 325.16796875 344.12890625 C325.35540624 319.4996197 320.26163883 293.54027874 303 275 C302.21625 274.154375 301.4325 273.30875 300.625 272.4375 C299.75875 271.633125 298.8925 270.82875 298 270 C296.92298828 268.98486328 296.92298828 268.98486328 295.82421875 267.94921875 C290.20876418 262.7529583 284.37865767 258.22077135 278 254 C282.94330491 252.41858478 286.41854803 253.86011815 291 256 C304.05052678 263.88429166 313.80183579 274.65786497 321 288 C321.70576172 289.28777344 321.70576172 289.28777344 322.42578125 290.6015625 C336.97684006 319.70368012 335.67384974 355.45950454 325.78173828 385.73779297 C321.29805759 398.71274153 315.39838003 410.46640375 308 422 C306.97781971 423.64499712 305.95670105 425.29065536 304.9375 426.9375 C304.298125 427.948125 303.65875 428.95875 303 430 C305.88663791 431.44331895 307.78034347 431.31023717 311 431 C313.57473657 429.72293066 315.80930785 428.44856997 318.1875 426.875 C318.87239502 426.43341553 319.55729004 425.99183105 320.26293945 425.53686523 C333.28737071 417.01037386 345.70452695 407.61498864 357.41992188 397.36962891 C359.09310848 395.91929256 360.7860182 394.49497754 362.484375 393.07421875 C373.20762739 384.07518331 383.1605379 374.68393062 391.8671875 363.68359375 C393.25383274 361.93885881 394.67452326 360.22046854 396.1328125 358.53515625 C406.65923014 346.29206477 419.50235724 330.06779906 419.21484375 313.328125 C418.14085864 301.69003177 413.62050562 291.70914928 406 283 C406 282.34 406 281.68 406 281 C405.49855469 280.7628125 404.99710938 280.525625 404.48046875 280.28125 C402.45299238 279.23398661 400.51085586 278.13321274 398.55078125 276.96875 C366.26545944 258.00685122 329.2473362 248.94247475 292.375 244.1875 C291.51390625 244.07567383 290.6528125 243.96384766 289.765625 243.84863281 C272.05226645 241.77987116 254.121157 241.75980497 236.3125 241.75 C235.1961618 241.74932526 234.07982361 241.74865051 232.92965698 241.74795532 C214.10169378 241.76591085 195.68614437 242.59698852 177 245 C176.22172852 245.09899597 175.44345703 245.19799194 174.64160156 245.29998779 C165.72214476 246.43839446 156.81017982 247.63216479 147.91015625 248.9140625 C146.62246338 249.0992041 145.33477051 249.2843457 144.00805664 249.47509766 C141.08806011 249.83646857 141.08806011 249.83646857 139 251 C139.83402344 251.556875 140.66804687 252.11375 141.52734375 252.6875 C157.23777345 263.28601018 171.12473533 275.59553228 175 295 C183.76734528 359.80767496 147.59657368 452.38603216 109 504 C102.6928713 511.00653307 95.65115673 512.38956176 86.5703125 512.96875 C76.77526016 513.0544835 67.31930903 510.8528497 58 508 C56.20362626 514.02313548 54.92780165 518.99484192 57.98828125 524.91015625 C61.63517963 530.66558584 66.08660984 535.83983374 70.3815918 541.11450195 C87.08523506 561.87113948 87.08523506 561.87113948 86 572 C84.625 574.4375 84.625 574.4375 82 576 C73.77147216 577.99284659 66.67930096 574.18433524 59.75390625 570.0859375 C42.93746848 559.67397826 28.66926149 544.54128746 18 528 C15.71120432 530.08294852 14.43465298 531.8582044 13.28125 534.72265625 C12.98863281 535.42583984 12.69601562 536.12902344 12.39453125 536.85351562 C11.79681784 538.32952843 11.20046934 539.80609467 10.60546875 541.28320312 C8.30766811 546.79488793 8.30766811 546.79488793 5 549 C4.34 548.34 3.68 547.68 3 547 C3.34056294 540.63724662 6.24651701 534.83924488 9.0625 529.25 C12.55919377 522.09459513 15.86488736 514.88392135 19 507.5625 C19.38551025 506.66885742 19.77102051 505.77521484 20.16821289 504.85449219 C20.52520264 504.01692383 20.88219238 503.17935547 21.25 502.31640625 C21.72179687 501.20954468 21.72179687 501.20954468 22.203125 500.08032227 C22.97319855 498.06996787 23.52634772 496.09798358 24 494 C23.29891113 493.89510254 22.59782227 493.79020508 21.87548828 493.68212891 C18.58739823 492.90212181 15.99203524 491.64167358 12.9921875 490.0859375 C11.83976563 489.48910156 10.68734375 488.89226562 9.5 488.27734375 C8.90316406 487.96394043 8.30632812 487.65053711 7.69140625 487.32763672 C5.90544602 486.39096779 4.11292054 485.46685135 2.3203125 484.54296875 C-1.14462151 482.73735314 -4.5780059 480.8856292 -8 479 C-9.09538086 478.40219727 -10.19076172 477.80439453 -11.31933594 477.18847656 C-12.82802246 476.3101416 -12.82802246 476.3101416 -14.3671875 475.4140625 C-15.2629248 474.90053223 -16.15866211 474.38700195 -17.08154297 473.85791016 C-19 472 -19 472 -19.65307617 469.36987305 C-18.68098457 464.3538804 -16.05254498 460.83453149 -13.18359375 456.66796875 C-12.58015137 455.76719101 -11.97670898 454.86641327 -11.35498047 453.93833923 C-10.06309598 452.0119408 -8.76528213 450.08950791 -7.46212769 448.17071533 C-4.08003978 443.18733169 -0.74527662 438.17244928 2.59375 433.16015625 C3.24775284 432.18060974 3.90175568 431.20106323 4.57557678 430.1918335 C11.7918529 419.35999452 18.57234143 408.31992383 25 397 C25.78383057 395.62424805 25.78383057 395.62424805 26.58349609 394.22070312 C36.34384121 376.97993326 45.2857576 359.23007593 52.68359375 340.83984375 C54.16158021 337.65142786 56.05008116 334.91906339 58 332 C58.6927903 330.34402179 59.36422971 328.67869544 60 327 C59.319375 326.98541748 58.63875 326.97083496 57.9375 326.95581055 C43.58998129 326.61834813 29.34739245 325.91572321 15.0625 324.5625 C13.75603516 324.44028076 12.44957031 324.31806152 11.10351562 324.19213867 C5.14664687 323.60597365 -0.75028159 322.9100566 -6.65625 321.93359375 C-13.99697544 320.75663058 -21.27350203 320.59097064 -28.69335938 320.43359375 C-38.85253491 320.14133479 -49.3136624 319.73626068 -58 314 C-59.39120072 310.6447512 -59.15177115 309.45531344 -58 306 C-58.87527344 305.74992187 -59.75054687 305.49984375 -60.65234375 305.2421875 C-64.15365864 303.94298314 -66.58932602 302.36651096 -69.5625 300.125 C-70.47128906 299.44695312 -71.38007813 298.76890625 -72.31640625 298.0703125 C-73.20199219 297.38710938 -74.08757812 296.70390625 -75 296 C-75.85335938 295.36320312 -76.70671875 294.72640625 -77.5859375 294.0703125 C-91.6316079 282.02467284 -96.39877325 262.76913289 -97.859375 245.10498047 C-101.54096167 189.99623004 -80.90814418 134.33904583 -56.09960938 86.14160156 C-55.33038441 84.64345737 -54.56649452 83.14256731 -53.80664062 81.63964844 C-39.18579843 52.72664965 -21.92499092 24.03037084 0 0 Z M30 500 C29.73783691 500.55461914 29.47567383 501.10923828 29.20556641 501.68066406 C28.01249992 504.20399177 26.81875675 506.72699878 25.625 509.25 C25.2125 510.12269531 24.8 510.99539063 24.375 511.89453125 C23.97539063 512.73886719 23.57578125 513.58320312 23.1640625 514.453125 C22.79748535 515.22817383 22.4309082 516.00322266 22.05322266 516.80175781 C21.05768996 518.87959193 20.03691854 520.9425569 19 523 C19.42410156 523.4125 19.84820313 523.825 20.28515625 524.25 C23.38167133 527.29887638 26.37027857 530.37761176 29.1875 533.6875 C41.40673378 547.75319578 55.35390954 561.1790178 73 568 C74.32 568 75.64 568 77 568 C76.49458607 563.32056417 74.36473565 560.24001839 71.625 556.5625 C71.18309326 555.95486816 70.74118652 555.34723633 70.28588867 554.72119141 C67.51938063 550.94934241 64.64624246 547.2740999 61.7175293 543.62744141 C46.84641907 525.07925214 46.84641907 525.07925214 47.62109375 516.046875 C48.19870278 512.92659528 48.97654171 510.00640872 50 507 C43.54049539 503.99557925 36.82173549 502.02087502 30 500 Z " fill="#000000" transform="translate(535,388)"/>
<path d="M0 0 C4.26367697 2.4018093 6.51596025 5.37249422 8 10 C9.37352675 21.1479264 6.20712342 30.8028908 -0.234375 39.86328125 C-6.09353393 46.95390057 -12.48654794 52.38739422 -21.90234375 53.43359375 C-23.24719093 53.45710679 -24.59260287 53.45795777 -25.9375 53.4375 C-26.64044189 53.42920166 -27.34338379 53.42090332 -28.06762695 53.41235352 C-34.61114432 53.19901921 -38.83184856 52.01614417 -43.546875 47.52734375 C-47.4456567 42.89480257 -48.29381902 37.94760918 -48 32 C-46.30497951 21.47472988 -40.05633317 12.76312568 -32 6 C-29.68497492 4.34368308 -27.6114028 3.20526283 -25 2 C-24.01 2.33 -23.02 2.66 -22 3 C-23.32 4.32 -24.64 5.64 -26 7 C-22.7 6.67 -19.4 6.34 -16 6 C-15.2265625 8.05859375 -15.2265625 8.05859375 -15 11 C-16.36712369 13.53935953 -17.71544208 15.73368583 -19.375 18.0625 C-23.05392929 23.13225851 -23.05392929 23.13225851 -25 29 C-23.11732015 30.88267985 -20.42937958 30.40620537 -17.91015625 30.62109375 C-16 31 -16 31 -14 33 C-14.188328 38.74400414 -14.88245185 41.74962772 -19 46 C-10.94301741 42.43993792 -4.74131311 35.75880328 -0.953125 27.80078125 C1.16783027 22.06819933 2.33364194 15.81549965 0.26953125 9.91015625 C-1.35863822 7.46038741 -3.0229537 6.58819524 -5.625 5.25 C-6.44226563 4.82203125 -7.25953125 4.3940625 -8.1015625 3.953125 C-8.72804688 3.63859375 -9.35453125 3.3240625 -10 3 C-10 2.01 -10 1.02 -10 0 C-6.710718 -1.644641 -3.4274719 -0.93013178 0 0 Z " fill="#000000" transform="translate(797,689)"/>
<path d="M0 0 C-2.20712132 1.25217771 -4.41547987 2.50206429 -6.625 3.75 C-7.33865723 4.153396 -8.05231445 4.55679199 -8.78759766 4.97241211 C-12.85196735 7.26019044 -16.93250013 9.5103334 -21.046875 11.70703125 C-41.56605008 22.67969921 -61.39849593 34.61255312 -80.04638672 48.55224609 C-82.52368736 50.38808623 -85.03679954 52.16969687 -87.5559082 53.94750977 C-103.76970365 65.39293952 -118.86757421 77.92246938 -133.35742188 91.47509766 C-135.58019875 93.53863279 -137.83194454 95.56939867 -140.08227539 97.6027832 C-142.24556527 99.57732755 -144.36658867 101.59480042 -146.48974609 103.61230469 C-147.92956289 104.93527893 -149.44234944 106.17750589 -150.95703125 107.4140625 C-153.69899017 109.87237049 -155.47148313 111.64097964 -157 115 C-156.59316061 120.00051955 -155.20116387 124.34844841 -153.58496094 129.06982422 C-152.31475009 133.2610959 -152.18440811 137.64796856 -152 142 C-150.81001879 141.1283774 -149.62318786 140.25245401 -148.4375 139.375 C-147.77621094 138.88773438 -147.11492187 138.40046875 -146.43359375 137.8984375 C-144.1080284 136.14292143 -144.1080284 136.14292143 -142.51412964 134.60881042 C-138.27105781 130.68539969 -134.45336929 128.61970136 -128.94921875 126.96484375 C-128.17744797 126.72080307 -127.40567719 126.47676239 -126.61051941 126.22532654 C-117.73064649 123.4888875 -108.70665242 121.30398368 -99.6550293 119.2199707 C-96.77330257 118.55343372 -93.89757448 117.86423556 -91.02148438 117.17382812 C-89.1669842 116.74082527 -87.31217703 116.30913467 -85.45703125 115.87890625 C-84.60905472 115.6738295 -83.76107819 115.46875275 -82.8874054 115.25746155 C-77.87667793 114.12750437 -74.02950731 113.849135 -69 115 C-68 116 -68 116 -67.72265625 118.61328125 C-68.05759707 122.70333318 -69.47492308 125.66817643 -71.4375 129.1875 C-71.79585937 129.84024902 -72.15421875 130.49299805 -72.5234375 131.16552734 C-81.337046 146.73801468 -90.95042858 152.76785771 -107.625 157.9375 C-109.00218025 158.37307462 -110.37921356 158.80911408 -111.75610352 159.24560547 C-123.08468689 162.81274502 -134.50001961 166.0314846 -146 169 C-146 172.63 -146 176.26 -146 180 C-125.50365404 185.94656608 -104.96609514 191.0084915 -84 195 C-82.85328827 195.21849609 -82.85328827 195.21849609 -81.68341064 195.44140625 C-36.86752481 203.91647696 8.53993255 208.30953422 54.06610107 210.58241272 C59.4087707 210.86066391 64.6872475 211.36667638 70 212 C35.55124762 234.96583492 -54.24221731 209.41973485 -92.84155273 201.77661133 C-98.66563575 200.61044136 -104.48321776 199.41293695 -110.29350281 198.17980957 C-122.17804882 195.66681895 -129.38921867 196.89998013 -139.875 203.4375 C-141.59543624 204.60739665 -143.30551677 205.79281914 -145 207 C-146.03125 207.721875 -147.0625 208.44375 -148.125 209.1875 C-151.92209056 212.48122985 -154.66997018 216.79225996 -157.55859375 220.8671875 C-162.44168418 227.13316914 -168.13494886 232.16173479 -174.5 236.875 C-175.18924561 237.38820801 -175.87849121 237.90141602 -176.58862305 238.43017578 C-186.81133343 245.92271285 -197.82897921 252.0465583 -209 258 C-197.9535067 259.84636661 -187.15435909 260.34286484 -175.96777344 260.31567383 C-173.26716429 260.31252004 -170.5676619 260.33605106 -167.8671875 260.36132812 C-134.26295713 260.48213652 -105.22234003 249.88057861 -81 226 C-75.91691254 220.83733387 -72.25061943 215.47127924 -69 209 C-68.67 209 -68.34 209 -68 209 C-67.38737062 219.0062799 -70.24850761 224.83059119 -76.625 232.4140625 C-98.42931907 256.15494938 -128.5807423 267.00937091 -160 269 C-165.1457389 269.18436337 -170.28884698 269.24424381 -175.4375 269.25 C-176.50558395 269.25200912 -176.50558395 269.25200912 -177.59524536 269.25405884 C-187.94321967 269.2498811 -198.14020315 268.78072284 -208.4375 267.6875 C-209.56019287 267.56987305 -210.68288574 267.45224609 -211.83959961 267.33105469 C-218.48667506 266.54258097 -224.66555868 265.16581024 -231 263 C-231 261.68 -231 260.36 -231 259 C-226.46061529 256.33758734 -221.9283189 253.97880752 -217.125 251.8125 C-196.24936862 242.18629518 -166.76171363 228.37303408 -157.6484375 205.58984375 C-155.63965249 197.56680483 -156.9927863 188.72441617 -157.51953125 180.53515625 C-157.56581665 179.80558716 -157.61210205 179.07601807 -157.65979004 178.32434082 C-157.77248889 176.54951567 -157.88614299 174.77475123 -158 173 C-158.6704837 173.13336761 -159.34096741 173.26673523 -160.0317688 173.40414429 C-166.41347841 174.67284902 -172.79590173 175.93789506 -179.17910957 177.19904137 C-182.4591552 177.84721645 -185.73883871 178.49710563 -189.01806641 179.14941406 C-192.80562949 179.90259804 -196.59412286 180.65094357 -200.3828125 181.3984375 C-201.53548615 181.6287265 -202.68815979 181.8590155 -203.87576294 182.09628296 C-235.13760805 188.23858357 -235.13760805 188.23858357 -241.2578125 184.69140625 C-243 183 -243 183 -243.75 179.625 C-243 176 -243 176 -240.046875 173.68359375 C-233.0218547 169.57971534 -225.13050951 167.16374193 -217.5 164.4375 C-215.81503848 163.82765858 -214.13047236 163.21672366 -212.44628906 162.60473633 C-209.86457095 161.66668752 -207.28265785 160.72923362 -204.69952393 159.79508972 C-196.72960695 156.91204934 -188.78699575 153.95858632 -180.85327148 150.97756958 C-178.77843781 150.19818233 -176.70275503 149.4210913 -174.62695312 148.64428711 C-173.37104042 148.17315646 -172.11517803 147.70189166 -170.859375 147.23046875 C-169.77108398 146.82207764 -168.68279297 146.41368652 -167.56152344 145.99291992 C-165.06204805 145.07007142 -165.06204805 145.07007142 -163 144 C-166.3963854 124.86036933 -174.57327867 108.20013896 -190.84375 96.82421875 C-199.65269137 91.73291229 -209.9731048 89.27939612 -220 88 C-220.84820312 87.88914062 -221.69640625 87.77828125 -222.5703125 87.6640625 C-236.65495874 86.1793562 -251.25285205 86.4287979 -265.3203125 87.9765625 C-268.20785021 88.00181793 -269.61786287 87.59175062 -272 86 C-273 84.25 -273 84.25 -273 82 C-263.94972357 63.03751605 -229.01417829 48.04097286 -210 41 C-181.4111886 31.29945237 -151.06306714 34.19835653 -123.484375 46.578125 C-117.14375257 49.93492511 -112.04514793 53.92325407 -107 59 C-105.62908203 57.90558594 -105.62908203 57.90558594 -104.23046875 56.7890625 C-86.5011291 42.84034416 -67.53800709 30.26920119 -48 19 C-46.94425781 18.35417969 -45.88851562 17.70835937 -44.80078125 17.04296875 C-37.47284806 12.64620884 -29.94689089 9.05295234 -22.125 5.625 C-21.14982422 5.19582275 -20.17464844 4.76664551 -19.16992188 4.32446289 C-5.11783301 -1.70594434 -5.11783301 -1.70594434 0 0 Z M-256 76 C-256.66 76.99 -257.32 77.98 -258 79 C-256.70304199 79.02187378 -256.70304199 79.02187378 -255.37988281 79.04418945 C-231.37514454 79.49527451 -209.27369216 80.30701715 -186.9375 90.0625 C-176.16969704 94.73287237 -163.81962542 98.86394146 -151.96875 96.359375 C-148.2665344 94.66414996 -145.67128502 92.26047925 -142.8125 89.4375 C-141.6610933 88.3387945 -140.50741803 87.2424618 -139.3515625 86.1484375 C-138.7834082 85.60928711 -138.21525391 85.07013672 -137.62988281 84.51464844 C-133.61356675 80.78229001 -129.27758632 77.42425708 -125 74 C-122.84220693 72.25035406 -120.68724141 70.49726284 -118.5324707 68.74389648 C-115.35705033 66.16004788 -112.17848197 63.58008072 -109 61 C-112.68888591 56.78863452 -117.74726413 55.52391073 -122.875 53.625 C-124.47964111 53.02836548 -124.47964111 53.02836548 -126.11669922 52.41967773 C-175.01333475 34.71099078 -215.2763339 44.63685953 -256 76 Z M-90.125 124.75 C-90.84042969 124.90726563 -91.55585938 125.06453125 -92.29296875 125.2265625 C-95.32607844 125.96357981 -97.57162767 126.58614876 -99.84375 128.78125 C-101.20181972 131.38727567 -102.31649392 134.00782988 -103.375 136.75 C-105.46149351 141.92501125 -107.88855413 146.37728041 -111 151 C-97.44741633 147.90790567 -89.14124332 143.81384233 -81.58935547 131.84326172 C-78.52761284 127.66423527 -78.52761284 127.66423527 -77 123 C-81.55640777 122.74984428 -85.7297703 123.67721169 -90.125 124.75 Z M-136 132 C-135.67 132.66 -135.34 133.32 -135 134 C-134.67 133.34 -134.34 132.68 -134 132 C-134.66 132 -135.32 132 -136 132 Z " fill="#000000" transform="translate(462,699)"/>
<path d="M0 0 C1.30845286 3.92535858 0.24435512 6.71124828 -0.8125 10.5625 C-2.45036431 16.67049217 -3.81519634 22.78720083 -5 29 C-4.32759277 28.67314209 -3.65518555 28.34628418 -2.96240234 28.00952148 C42.82709698 5.90759629 42.82709698 5.90759629 62 9 C62.495 11.475 62.495 11.475 63 14 C60.26348818 15.82434121 59.14659156 16.33318237 56.078125 16.89453125 C55.30823242 17.04229004 54.53833984 17.19004883 53.74511719 17.34228516 C52.92172852 17.49745605 52.09833984 17.65262695 51.25 17.8125 C33.12636179 21.47607862 15.97351506 28.38234378 -0.484375 36.77734375 C-3.59097586 38.28722895 -5.5908938 38.53030541 -9 38 C-10.875 36.5625 -10.875 36.5625 -12 34 C-12.76823207 26.06160199 -10.83934698 18.69679121 -9 11 C-9.67466309 11.28198242 -10.34932617 11.56396484 -11.04443359 11.85449219 C-14.15429838 13.15377188 -17.26464592 14.45189209 -20.375 15.75 C-21.43589844 16.1934375 -22.49679688 16.636875 -23.58984375 17.09375 C-26.72429348 18.4013732 -29.8617659 19.70148937 -33 21 C-33.96196289 21.40283203 -34.92392578 21.80566406 -35.91503906 22.22070312 C-36.8015918 22.58615234 -37.68814453 22.95160156 -38.6015625 23.328125 C-39.38096191 23.65200195 -40.16036133 23.97587891 -40.96337891 24.30957031 C-43 25 -43 25 -46 25 C-43.0745372 17.24313908 -31.77695567 13.7789793 -24.58984375 10.5078125 C-22.04453734 9.36758792 -19.49148455 8.24561599 -16.9375 7.125 C-15.62017427 6.53966626 -14.30311555 5.95373123 -12.98632812 5.3671875 C-3.58488775 1.19496258 -3.58488775 1.19496258 0 0 Z " fill="#000000" transform="translate(124,856)"/>
<path d="M0 0 C0.99 0.99 0.99 0.99 2 2 C1.81640625 3.97265625 1.81640625 3.97265625 1 6 C-10.92258801 15.48940678 -28.446296 17.33082683 -43 20 C-42.43410156 20.45890625 -41.86820313 20.9178125 -41.28515625 21.390625 C-40.55167969 22.00421875 -39.81820312 22.6178125 -39.0625 23.25 C-38.33160156 23.85328125 -37.60070312 24.4565625 -36.84765625 25.078125 C-34.88756297 27.11695353 -34.24509944 28.20469925 -34 31 C-35.99820462 33.56912023 -37.86932358 34.83433121 -41.11279297 35.30957031 C-42.41434326 35.44250488 -42.41434326 35.44250488 -43.7421875 35.578125 C-57.18725293 37.04770709 -69.97548829 39.35486564 -83 43 C-81.34097223 39.07717572 -79.41352286 37.78992758 -75.51953125 36.0078125 C-65.84013753 32.13605501 -56.31895941 30.17577349 -46 29 C-49.0030851 25.9239923 -52.14014842 23.2193263 -55.51171875 20.5625 C-57.23982278 18.74821755 -57.60509044 17.44317384 -58 15 C-53.82657547 12.71167681 -50.2629424 11.48457849 -45.5625 10.7890625 C-43.73416626 10.50349487 -43.73416626 10.50349487 -41.86889648 10.2121582 C-40.59216064 10.018396 -39.3154248 9.82463379 -38 9.625 C-27.06280427 7.86180953 -16.75060789 6.02141056 -6.82421875 0.87109375 C-4.41654668 -0.27860833 -2.63410543 -0.27727426 0 0 Z " fill="#000000" transform="translate(200,920)"/>
</svg>
