<?xml version="1.0" encoding="UTF-8"?>
<svg version="1.1" xmlns="http://www.w3.org/2000/svg" width="1040" height="1041">
<path d="M0 0 C0.8125 2.1875 0.8125 2.1875 1 5 C-3.57934245 11.0005177 -10.78894828 14.85929885 -17 19 C-19.6875 19.125 -19.6875 19.125 -22 19 C-22.33 18.34 -22.66 17.68 -23 17 C-20.25579909 10.28143915 -14.68824709 5.2715114 -9 1 C-5.8035914 -0.06546953 -3.34252724 -0.07427838 0 0 Z " fill="#000000" transform="translate(871,63)"/>
<path d="M0 0 C0.928125 0.556875 1.85625 1.11375 2.8125 1.6875 C16.61457212 16.27826196 16.35651761 41.24321259 16 60 C16.60980713 60.12189697 17.21961426 60.24379395 17.84790039 60.36938477 C18.65219482 60.53752686 19.45648926 60.70566895 20.28515625 60.87890625 C21.08058838 61.04205322 21.87602051 61.2052002 22.69555664 61.37329102 C27.39229008 62.6505995 30.34400001 65.01600002 33 69 C33.3359375 71.15625 33.3359375 71.15625 33.375 73.5 C33.40335938 74.2734375 33.43171875 75.046875 33.4609375 75.84375 C33 78 33 78 31.28125 79.765625 C28.64605812 81.1915165 27.10075508 81.34270265 24.125 81.25 C23.30257812 81.23453125 22.48015625 81.2190625 21.6328125 81.203125 C18.71399581 80.97793439 15.87961632 80.52051374 13 80 C12.67128906 81.22332031 12.34257813 82.44664062 12.00390625 83.70703125 C7.31672037 100.54349728 1.17131085 116.36478119 -10 130 C-10.66644531 130.86753906 -11.33289063 131.73507813 -12.01953125 132.62890625 C-18.32838974 140.18211553 -28.65696748 143.28003097 -38.20117188 144.21582031 C-53.31788289 145.11454693 -67.18337828 142.36008067 -80 134 C-82.74827081 131.26206103 -84.40445205 128.51925824 -86 125 C-86.38414062 124.17757812 -86.76828125 123.35515625 -87.1640625 122.5078125 C-92.8181297 108.7997503 -93.83805327 92.31565855 -90 78 C-89.505 77.01 -89.505 77.01 -89 76 C-88.01 76 -87.02 76 -86 76 C-85.95512451 76.82612793 -85.91024902 77.65225586 -85.86401367 78.50341797 C-85.68907782 81.6165355 -85.50320783 84.72876849 -85.31030273 87.84082031 C-85.19016232 89.83089973 -85.0822466 91.82170517 -84.97460938 93.8125 C-84.25570226 105.1999887 -82.75243569 116.84336746 -73.875 124.9375 C-69.75927893 127.26974194 -65.61838942 127.70478115 -61 127 C-47.12962019 121.50013953 -39.74732796 105.50484596 -34.10229492 92.66381836 C-30.68877273 84.58961308 -28.35882714 76.6860412 -27 68 C-26.72542969 66.25783203 -26.72542969 66.25783203 -26.4453125 64.48046875 C-25.70664755 58.30354898 -25.77556478 52.0872406 -25.75 45.875 C-25.729375 44.64523438 -25.70875 43.41546875 -25.6875 42.1484375 C-25.6338138 29.37112086 -27.6705461 18.15487915 -34 7 C-34.49306641 5.91138672 -34.49306641 5.91138672 -34.99609375 4.80078125 C-36.44023483 2.21031807 -38.2530879 1.89274643 -41 1 C-41.66 0.67 -42.32 0.34 -43 0 C-49.50304967 -0.78036596 -53.03321313 1.14679828 -58 5 C-68.29308528 13.28412784 -73.87479847 26.13826465 -79 38 C-81.81496789 33.77754817 -80.86912613 31.23187618 -79.9453125 26.390625 C-76.38912689 13.63538075 -67.62553478 2.04067 -56.28125 -4.81640625 C-39.19083818 -13.6835206 -15.95656795 -9.68115882 0 0 Z M-8 3 C-7.67386719 3.70382813 -7.34773437 4.40765625 -7.01171875 5.1328125 C-0.25180798 20.40741913 1.23699663 35.85983815 1.25 52.375 C1.25101212 53.52316193 1.25101212 53.52316193 1.25204468 54.69451904 C1.23652429 65.75228918 0.89503451 76.26375865 -2 87 C-2.16097168 87.63357422 -2.32194336 88.26714844 -2.48779297 88.91992188 C-4.65166642 97.30934862 -7.78566447 105.15061722 -11.4375 113 C-11.97624756 114.16571533 -11.97624756 114.16571533 -12.52587891 115.35498047 C-14.83334082 120.13758879 -17.50876485 124.23955907 -20.84790039 128.37109375 C-22.19248227 129.93961586 -22.19248227 129.93961586 -22 132 C-10.02660017 126.64963045 -3.53113613 110.06777053 1.25 98.625 C11.58050739 71.24915541 15.31708612 41.58296251 4.0625 13.8125 C1.30253118 8.16318882 -2.15217541 5.17706992 -8 3 Z M20 67 C20.33 69.97 20.66 72.94 21 76 C22.65 76.33 24.3 76.66 26 77 C26.66 75.68 27.32 74.36 28 73 C24.52263974 69.21965377 24.52263974 69.21965377 20 67 Z " fill="#000000" transform="translate(801,73)"/>
<path d="M0 0 C8.96564173 -0.42920625 18.36673035 -0.25790762 26.34375 4.35546875 C26.8903125 4.89816406 27.436875 5.44085938 28 6 C28 7.32 28 8.64 28 10 C20.79554899 12.01054447 14.84828473 9.44335787 8 7 C7.22140625 6.73703125 6.4428125 6.4740625 5.640625 6.203125 C3.75 5.5 3.75 5.5 1 4 C0.328125 1.90625 0.328125 1.90625 0 0 Z " fill="#000000" transform="translate(854,95)"/>
<path d="M0 0 C13.91732829 12.58160948 23.73354638 32.3249432 28.5234375 50.28125 C29.17795898 50.16152832 29.83248047 50.04180664 30.50683594 49.91845703 C39.88896686 48.27300011 49.31090394 47.2054956 58.7734375 46.15625 C60.40498081 45.97294875 62.0364915 45.78935698 63.66796875 45.60546875 C67.61942439 45.16071861 71.57129801 44.71988002 75.5234375 44.28125 C75.03746094 43.848125 74.55148437 43.415 74.05078125 42.96875 C72.5234375 41.28125 72.5234375 41.28125 72.0859375 38.28125 C72.5234375 35.28125 72.5234375 35.28125 74.27734375 33.6484375 C81.25056218 29.40386976 89.79517276 31.60081201 97.32421875 33.1015625 C101.08881837 34.48972988 102.89597009 36.2937915 105.5234375 39.28125 C106.1215625 39.879375 106.7196875 40.4775 107.3359375 41.09375 C107.7278125 41.485625 108.1196875 41.8775 108.5234375 42.28125 C108.5234375 38.50129996 107.44405623 37.59878636 105.0859375 34.71875 C101.59430364 30.42298228 101.59430364 30.42298228 100.5234375 28.28125 C103.57040474 27.99941882 105.09563436 27.99990199 107.69140625 29.70703125 C108.35785156 30.32964844 109.02429688 30.95226562 109.7109375 31.59375 C110.38511719 32.20863281 111.05929687 32.82351562 111.75390625 33.45703125 C113.5234375 35.28125 113.5234375 35.28125 115.5234375 38.28125 C122.16745905 37.85105269 128.79969952 37.40365931 135.4140625 36.6328125 C160.46744888 33.7347343 185.66547268 32.75703976 210.84765625 31.59594727 C214.84655253 31.41150506 218.84336338 31.21089695 222.83984375 30.98022461 C241.71807577 29.94245882 260.63232209 30.09401135 279.53271484 30.09594727 C283.58484404 30.09602806 287.63685905 30.08914675 291.68896484 30.07543945 C313.64567066 30.00221281 335.51833667 30.14155539 357.43508911 31.57929993 C364.21991065 32.02323015 370.99398292 32.39252508 377.79345703 32.46411133 C379.58543015 32.48445183 379.58543015 32.48445183 381.41360474 32.50520325 C385.80898446 32.1886719 388.00879687 30.85865313 391.5234375 28.28125 C399.5798781 25.57276783 409.93900178 26.5989515 417.5234375 30.28125 C418.15378906 30.97863281 418.78414062 31.67601562 419.43359375 32.39453125 C421.40784152 34.56392662 421.40784152 34.56392662 424.36328125 34.49609375 C426.42603519 34.31140834 428.48853962 34.12391441 430.55078125 33.93359375 C433.5234375 34.28125 433.5234375 34.28125 435.77734375 36.6875 C439.69918364 40.39176982 443.29925582 40.35062284 448.5234375 40.84375 C469.36053525 43.30278638 469.36053525 43.30278638 477.5234375 49.28125 C478.98458421 52.41595682 478.40399928 54.63956465 477.3359375 57.84375 C476.38830928 60.40445202 475.59474115 62.19074921 473.8984375 64.34375 C465.87848308 67.50952148 451.57579188 64.96536813 443.5234375 62.28125 C443.5234375 61.62125 443.5234375 60.96125 443.5234375 60.28125 C442.8634375 60.28125 442.2034375 60.28125 441.5234375 60.28125 C440.8634375 62.26125 440.2034375 64.24125 439.5234375 66.28125 C438.6365625 66.095625 437.7496875 65.91 436.8359375 65.71875 C433.60993057 65.0948951 433.60993057 65.0948951 430.8359375 65.90625 C430.0728125 66.03 429.3096875 66.15375 428.5234375 66.28125 C426.7109375 64.96875 426.7109375 64.96875 425.5234375 63.28125 C425.5234375 62.62125 425.5234375 61.96125 425.5234375 61.28125 C415.6234375 61.77625 415.6234375 61.77625 405.5234375 62.28125 C407.3590625 63.003125 409.1946875 63.725 411.0859375 64.46875 C422.85085175 69.42166791 422.85085175 69.42166791 426.4609375 75.59375 C431.56756637 93.31675607 419.46722231 113.63420479 412.5234375 129.28125 C412.11609375 130.2005127 411.70875 131.11977539 411.2890625 132.06689453 C410.36926164 134.13928035 409.44760559 136.21080895 408.5234375 138.28125 C408.1934375 138.28125 407.8634375 138.28125 407.5234375 138.28125 C407.66245748 128.84634543 410.5775286 120.76781347 413.9609375 112.09375 C420.64461972 96.19752169 420.64461972 96.19752169 421.5234375 79.28125 C417.29137134 71.54678425 408.53831134 69.18381642 400.5234375 66.65625 C399.8221875 66.45773438 399.1209375 66.25921875 398.3984375 66.0546875 C396.16360096 65.13281743 395.01374214 64.18047969 393.5234375 62.28125 C393.0234375 58.78125 393.0234375 58.78125 393.5234375 55.28125 C397.14693869 52.55858213 401.02015497 51.35796912 405.3359375 50.09375 C406.49738281 49.74957031 407.65882813 49.40539062 408.85546875 49.05078125 C409.73589844 48.79683594 410.61632812 48.54289062 411.5234375 48.28125 C411.5234375 47.95125 411.5234375 47.62125 411.5234375 47.28125 C393.61519075 46.52656635 393.61519075 46.52656635 376.8359375 52.09375 C374.37554036 54.12555194 374.37554036 54.12555194 373.3984375 56.96875 C373.63494687 63.2362484 375.70592027 67.47981699 380.171875 71.90625 C382.10606703 73.61199415 384.06869616 75.28620751 386.0625 76.921875 C389.54015826 80.25601085 390.35757205 82.71517153 390.859375 87.453125 C391.07837544 107.51356516 384.13897806 127.50873324 375.37109375 145.3828125 C374.38753524 147.23910714 374.38753524 147.23910714 374.5234375 149.28125 C376.70720516 150.41402268 378.89500878 151.53747789 381.0859375 152.65625 C381.69501953 152.97335938 382.30410156 153.29046875 382.93164062 153.6171875 C389.46525174 156.93584712 395.61238612 158.48633278 402.9609375 158.90625 C404.19714844 158.98101562 405.43335938 159.05578125 406.70703125 159.1328125 C407.63644531 159.18179688 408.56585937 159.23078125 409.5234375 159.28125 C407.31290229 161.83718133 405.88190043 162.76043116 402.5234375 163.15625 C387.24826229 164.23133565 370.40185211 160.04794646 358.5234375 150.28125 C357.10301929 147.44041359 357.20891478 145.42647722 357.5234375 142.28125 C358.8984375 140.03125 358.8984375 140.03125 361.5234375 138.28125 C363.15150526 138.1017807 364.78218167 137.94532462 366.4140625 137.8046875 C369.58024328 137.20204191 371.0437427 136.90877134 373.02392578 134.31835938 C374.19893798 131.63110701 375.080459 128.97284759 375.8984375 126.15625 C376.21876953 125.16447754 376.53910156 124.17270508 376.86914062 123.15087891 C377.80229938 120.20648746 378.67074508 117.24980703 379.5234375 114.28125 C379.76352539 113.48589844 380.00361328 112.69054687 380.25097656 111.87109375 C384.64181636 97.72138347 384.64181636 97.72138347 382.23828125 83.65234375 C380.53939354 81.30331222 378.93386848 79.79201006 376.6484375 78.03125 C370.46930363 72.80800425 367.74975592 67.18441617 366.5234375 59.28125 C354.68187368 59.14930466 342.84029468 59.01882148 330.99869537 58.89009857 C325.49749475 58.83025465 319.99630012 58.76994625 314.49511719 58.70849609 C309.16529039 58.64897848 303.83545049 58.59078562 298.50559998 58.53343201 C296.49352014 58.51156277 294.48144504 58.48925201 292.46937561 58.46644592 C263.18729764 58.13087252 263.18729764 58.13087252 233.91015625 58.61328125 C232.66125107 58.64947067 231.41234589 58.6856601 230.12559509 58.72294617 C226.15385461 58.84097418 222.18237988 58.96620077 218.2109375 59.09375 C217.53033012 59.11523102 216.84972275 59.13671204 216.14849091 59.15884399 C197.7963175 59.73823278 179.46588295 60.47690919 161.1484375 61.78125 C160.30203705 61.84091949 159.4556366 61.90058899 158.58358765 61.96206665 C149.40621475 62.621335 140.27167356 63.46051217 131.14614868 64.6463623 C127.24372296 65.14113036 123.45637422 65.36971629 119.5234375 65.28125 C119.49765625 66.25964844 119.471875 67.23804688 119.4453125 68.24609375 C118.99643389 78.6213107 117.59994714 86.33416799 110.5234375 94.28125 C107.7265625 96.30078125 107.7265625 96.30078125 104.7734375 98.09375 C103.78859375 98.69832031 102.80375 99.30289063 101.7890625 99.92578125 C101.04140625 100.37308594 100.29375 100.82039063 99.5234375 101.28125 C99.90735152 109.83304253 101.7575938 117.49825683 104.2734375 125.65625 C104.60859375 126.78546875 104.94375 127.9146875 105.2890625 129.078125 C106.32140123 132.49579187 107.40830493 135.88974235 108.5234375 139.28125 C108.90588623 140.47355225 109.28833496 141.66585449 109.68237305 142.89428711 C111.80512297 149.82131282 111.80512297 149.82131282 116.63671875 154.86328125 C117.69246094 155.26933594 118.74820313 155.67539063 119.8359375 156.09375 C120.90457031 156.53332031 121.97320312 156.97289062 123.07421875 157.42578125 C123.88246094 157.70808594 124.69070313 157.99039063 125.5234375 158.28125 C125.5234375 158.61125 125.5234375 158.94125 125.5234375 159.28125 C124.84990234 159.2905957 124.17636719 159.29994141 123.48242188 159.30957031 C100.18226569 159.47251627 100.18226569 159.47251627 78.5234375 167.28125 C74.99984661 174.32843177 76.48713213 181.05768059 78.80761719 188.20922852 C79.14696289 189.20237061 79.48630859 190.1955127 79.8359375 191.21875 C80.37009277 192.79450806 80.37009277 192.79450806 80.91503906 194.40209961 C89.54876086 219.14755545 102.33761415 242.33059279 115.3137207 265.02148438 C120.84627516 274.74324108 126.0650847 284.62463176 131.2890625 294.51416016 C132.01032692 295.87927919 132.73168004 297.24435137 133.453125 298.609375 C133.80445496 299.27411835 134.15578491 299.93886169 134.51776123 300.62374878 C137.52829952 306.31023275 140.60918479 311.9565375 143.7109375 317.59375 C157.99796629 343.67633008 171.14037439 370.35886166 184.38314819 396.98121643 C186.46004213 401.15534732 188.53897305 405.32737347 190.66772461 409.4753418 C194.34102792 416.66545907 197.50547574 423.86097929 200.2109375 431.46875 C200.60337646 432.53665771 200.99581543 433.60456543 201.40014648 434.70483398 C203.49868832 440.6116937 204.94685109 446.19246947 205.75634766 452.40136719 C206.52706183 459.16388915 206.52706183 459.16388915 210.00195312 464.79199219 C214.41722216 467.98883999 219.34746706 469.71172496 224.5234375 471.28125 C225.22162598 471.50296875 225.91981445 471.7246875 226.63916016 471.953125 C235.86966759 474.82357434 244.76672746 476.4411791 254.421875 476.37890625 C255.67431503 476.37678383 255.67431503 476.37678383 256.95205688 476.37461853 C259.60088792 476.36905174 262.2496323 476.35650547 264.8984375 476.34375 C266.70182169 476.3387307 268.50520721 476.33416855 270.30859375 476.33007812 C274.71357471 476.3190932 279.11849144 476.30185163 283.5234375 476.28125 C286.4537672 434.96738584 280.74316114 391.97062414 264.42285156 353.70043945 C263.33905355 350.78530521 263.37995214 348.36618519 263.5234375 345.28125 C265.35455078 345.33345703 265.35455078 345.33345703 267.22265625 345.38671875 C277.16339002 345.58094088 285.93468346 345.17336971 295.5234375 342.28125 C295.21875 344.640625 295.21875 344.640625 294.5234375 347.28125 C287.58485734 352.27702771 279.76649752 352.06658698 271.5234375 352.28125 C272.64292814 356.02623418 273.82698915 359.74770635 275.0234375 363.46875 C275.33796875 364.52384766 275.6525 365.57894531 275.9765625 366.66601562 C277.89102365 372.50144048 279.4866488 376.54934985 285.11523438 379.4050293 C289.9775343 381.17416904 294.94359503 382.16710409 300.0234375 383.09375 C301.13203125 383.30966797 302.240625 383.52558594 303.3828125 383.74804688 C306.09388997 384.27390242 308.80690056 384.78451729 311.5234375 385.28125 C311.09409912 384.29205566 310.66476074 383.30286133 310.22241211 382.28369141 C308.63607782 378.62316271 307.06001272 374.95828882 305.48706055 371.29199219 C304.80399762 369.70386681 304.11813145 368.11694414 303.42944336 366.53125 C302.44170726 364.25568808 301.46403535 361.97603323 300.48828125 359.6953125 C300.17688705 358.98380035 299.86549286 358.27228821 299.54466248 357.53921509 C298.81102052 355.81077737 298.15913407 354.04805993 297.5234375 352.28125 C297.8534375 351.62125 298.1834375 350.96125 298.5234375 350.28125 C318.0163661 370.74882503 325.14507365 403.67247218 332.5234375 430.28125 C332.90483887 431.65168457 332.90483887 431.65168457 333.29394531 433.04980469 C338.21200912 451.07796045 336.86752919 467.75947296 330.5234375 485.28125 C330.5234375 486.27125 330.5234375 487.26125 330.5234375 488.28125 C330.8534375 487.62125 331.1834375 486.96125 331.5234375 486.28125 C336.70810696 487.91042479 340.60809233 491.13054563 344.8984375 494.34375 C368.12015102 511.38126776 394.32042476 523.8353198 420.0871582 536.50488281 C482.59415919 567.28074568 482.59415919 567.28074568 492.5234375 592.28125 C505.9210472 633.67029425 491.22575302 683.08401027 482.14453125 724.078125 C476.84137689 748.06224223 472.88686314 771.72697244 470.578125 796.203125 C470.24888148 799.6876428 469.91839742 803.17203754 469.5859375 806.65625 C469.46342621 807.9412439 469.46342621 807.9412439 469.33843994 809.25219727 C467.27238593 830.65377229 464.44926866 851.91727302 454.5234375 871.28125 C454.1934375 871.28125 453.8634375 871.28125 453.5234375 871.28125 C453.5234375 868.64125 453.5234375 866.00125 453.5234375 863.28125 C452.8015625 863.9 452.0796875 864.51875 451.3359375 865.15625 C448.73961812 867.11791353 446.57672084 868.23441 443.5234375 869.28125 C445.5034375 870.27125 447.4834375 871.26125 449.5234375 872.28125 C449.1934375 872.94125 448.8634375 873.60125 448.5234375 874.28125 C441.95917228 876.37128727 435.36565553 876.88387791 428.5234375 877.40625 C427.46253906 877.49261719 426.40164063 877.57898438 425.30859375 877.66796875 C422.71395721 877.87834469 420.1189954 878.0826234 417.5234375 878.28125 C419.13412109 879.15136719 419.13412109 879.15136719 420.77734375 880.0390625 C435.8697576 888.28705693 435.8697576 888.28705693 440.5234375 893.28125 C441.18359375 895.953125 441.18359375 895.953125 441.5234375 898.28125 C442.55082031 898.26964844 443.57820312 898.25804687 444.63671875 898.24609375 C466.83006358 898.06893352 466.83006358 898.06893352 472.5234375 901.28125 C472.5234375 901.94125 472.5234375 902.60125 472.5234375 903.28125 C465.43105496 905.64537751 456.97152078 905.02680427 449.5234375 905.28125 C448.2250293 905.32644775 448.2250293 905.32644775 446.90039062 905.37255859 C413.44825155 906.37868615 380.84420559 893.99603632 354.5234375 873.28125 C354.2965625 873.9825 354.0696875 874.68375 353.8359375 875.40625 C352.20686883 878.97468613 350.11703019 881.34639511 347.5234375 884.28125 C346.5334375 883.95125 345.5434375 883.62125 344.5234375 883.28125 C345.09169403 877.74074887 347.15230267 873.24409034 349.5234375 868.28125 C348.43804688 867.90613281 347.35265625 867.53101563 346.234375 867.14453125 C344.78882668 866.62826399 343.34352719 866.11129963 341.8984375 865.59375 C340.82916016 865.22733398 340.82916016 865.22733398 339.73828125 864.85351562 C334.77495558 863.05487926 331.32416679 860.97189719 327.5234375 857.28125 C319.68434345 839.46512717 330.41096986 812.80466102 336.94921875 795.8984375 C344.87254397 776.02573593 354.19692113 756.80227094 363.44744873 737.52386475 C372.9457825 717.72709364 381.77047946 697.84305605 389.5234375 677.28125 C390.40469299 674.96604878 391.28620157 672.65094388 392.16796875 670.3359375 C393.73345566 666.20570391 395.29750959 662.07498133 396.84375 657.9375 C397.14555176 657.13119141 397.44735352 656.32488281 397.75830078 655.49414062 C398.47520447 653.42074718 399.13191133 651.44068071 399.5234375 649.28125 C399.1934375 648.62125 398.8634375 647.96125 398.5234375 647.28125 C395.98047963 646.6168192 393.47091487 646.05348434 390.8984375 645.53125 C383.04435398 643.80181984 375.84746812 641.34965177 368.47753906 638.12744141 C366.44868272 637.24887868 364.40597943 636.41052158 362.359375 635.57421875 C337.91981572 625.38786752 316.6210817 609.94248782 295.82788086 593.79956055 C290.87847731 589.97669499 285.88720288 586.49950923 280.5234375 583.28125 C280.56210937 584.41304687 280.60078125 585.54484375 280.640625 586.7109375 C280.584487 612.34354695 266.56035059 640.30882971 256.8984375 663.65625 C256.5432605 664.51730347 256.1880835 665.37835693 255.82214355 666.26550293 C249.70633087 681.03508819 243.12983164 695.49721066 234.7734375 709.15625 C234.26522461 709.99518799 233.75701172 710.83412598 233.23339844 711.69848633 C229.41152044 717.95466277 225.40630138 724.07359599 221.30126953 730.14672852 C216.97239398 736.5593882 212.80144947 743.0661014 208.6484375 749.59375 C203.67494332 757.40629272 198.63200174 765.16062714 193.4609375 772.84375 C174.66259593 800.88100369 156.62494756 829.74882562 144.77954102 861.48413086 C143.58039178 864.68511189 142.42857817 867.423539 140.5234375 870.28125 C139.5334375 869.95125 138.5434375 869.62125 137.5234375 869.28125 C137.5234375 867.30125 137.5234375 865.32125 137.5234375 863.28125 C136.90855469 863.48621094 136.29367187 863.69117188 135.66015625 863.90234375 C132.28125 865.02864583 128.90234375 866.15494792 125.5234375 867.28125 C128.1634375 867.94125 130.8034375 868.60125 133.5234375 869.28125 C133.5234375 869.61125 133.5234375 869.94125 133.5234375 870.28125 C124.53751803 870.90455077 116.73382915 869.39286805 108.11328125 867.15625 C104.65348335 866.16284492 104.65348335 866.16284492 101.5234375 866.28125 C102.27109375 866.87292969 103.01875 867.46460938 103.7890625 868.07421875 C104.77390625 868.86441406 105.75875 869.65460937 106.7734375 870.46875 C107.74796875 871.24605469 108.7225 872.02335938 109.7265625 872.82421875 C113.5867026 876.21531948 116.12392641 878.85799173 117.5234375 883.84375 C117.5234375 887.28125 117.5234375 887.28125 115.7109375 889.65625 C110.34703733 893.64086156 104.19571821 892.28894683 97.7734375 892.09375 C96.71514236 892.06315994 96.71514236 892.06315994 95.63546753 892.0319519 C81.74855386 891.60570518 67.92493022 890.54439132 54.0859375 889.34375 C52.58710022 889.21584579 52.58710022 889.21584579 51.0579834 889.08535767 C48.1720467 888.83651785 45.28710867 888.57845204 42.40234375 888.31640625 C41.55239334 888.24238586 40.70244293 888.16836548 39.82673645 888.09210205 C28.05489002 886.9836877 28.05489002 886.9836877 22.5234375 885.28125 C22.1934375 884.62125 21.8634375 883.96125 21.5234375 883.28125 C23.91926096 882.08333827 25.39121288 882.1605756 28.06494141 882.16772461 C29.00576569 882.16780014 29.94658997 882.16787567 30.91592407 882.16795349 C31.93366913 882.17311478 32.95141418 882.17827606 34 882.18359375 C35.04038422 882.1850087 36.08076843 882.18642365 37.15267944 882.18788147 C40.48462771 882.19349134 43.81650945 882.20604553 47.1484375 882.21875 C49.40364486 882.22376373 51.65885328 882.22832686 53.9140625 882.23242188 C59.45054364 882.24346397 64.98698582 882.26021173 70.5234375 882.28125 C69.81047012 881.79946037 69.81047012 881.79946037 69.08309937 881.30793762 C68.45674591 880.87478745 67.83039246 880.44163727 67.18505859 879.99536133 C66.25552872 879.3588842 66.25552872 879.3588842 65.30722046 878.70954895 C58.35322896 873.14139465 55.9091379 863.09994473 52.8984375 855.09375 C51.95378233 852.59793535 51.00174871 850.1052364 50.046875 847.61328125 C49.63356934 846.51733643 49.22026367 845.4213916 48.79443359 844.29223633 C46.69591174 838.89971017 46.69591174 838.89971017 42.5234375 835.28125 C42.5234375 835.94125 42.5234375 836.60125 42.5234375 837.28125 C40.90886671 838.71706474 39.23124675 840.08269783 37.5234375 841.40625 C36.5953125 842.13070312 35.6671875 842.85515625 34.7109375 843.6015625 C33.628125 844.43300781 33.628125 844.43300781 32.5234375 845.28125 C31.2034375 844.62125 29.8834375 843.96125 28.5234375 843.28125 C29.09334402 839.68767281 30.38726227 838.10875729 33.0234375 835.65625 C35.64150396 833.24514084 35.64150396 833.24514084 37.5234375 830.28125 C36.98332031 830.054375 36.44320312 829.8275 35.88671875 829.59375 C30.38729716 826.53952578 25.96891771 821.67789504 21.5234375 817.28125 C20.27820313 816.09982422 20.27820313 816.09982422 19.0078125 814.89453125 C16.74608368 812.35224446 15.49679605 810.54992383 14.5234375 807.28125 C15.15615175 801.52811633 17.27818744 796.57576983 19.5234375 791.28125 C20.19581806 789.5931668 20.86632546 787.90433654 21.53515625 786.21484375 C34.32258494 754.60652253 54.42547552 727.82763745 77.2578125 702.79296875 C78.54036665 701.37110268 79.81535472 699.94206735 81.06445312 698.49072266 C85.96536081 692.80028596 91.20376778 687.53732452 96.5625 682.28125 C100.53418826 678.35556586 104.28933229 674.32472929 107.93359375 670.09375 C110.02443032 667.71009357 112.25231435 665.49260675 114.5234375 663.28125 C118.73865464 659.09763118 122.72225861 654.84266467 126.5234375 650.28125 C127.21759766 649.44980469 127.21759766 649.44980469 127.92578125 648.6015625 C134.3251195 640.90958985 140.5455234 633.15535302 146.1887207 624.88623047 C147.96175381 622.3176404 149.63269003 620.18517714 151.984375 618.1171875 C155.82101619 613.83195442 157.55281225 608.90440757 159.6484375 603.59375 C160.11854248 602.41474121 160.58864746 601.23573242 161.07299805 600.02099609 C170.15855118 576.93819576 177.15880898 553.65677673 181.75048828 529.26611328 C183.08950183 522.26661381 184.61560851 515.30476796 186.12295532 508.33999634 C186.63087511 505.98758941 187.13264541 503.63393947 187.63354492 501.2800293 C194.20746577 470.59722173 194.20746577 470.59722173 200.5234375 464.28125 C200.12064563 457.36934159 198.03519758 451.36726033 195.6484375 444.90625 C195.04950684 443.26910034 195.04950684 443.26910034 194.43847656 441.59887695 C180.56699168 404.19559978 162.75603277 368.1779785 143.97998047 333.01464844 C142.57974117 330.38691139 141.18653149 327.75552448 139.79499817 325.12316895 C133.32432301 312.88669131 126.82319182 300.67905604 119.9609375 288.65625 C113.17816706 276.77270128 106.71255729 264.72717265 100.30615234 252.63818359 C98.64488074 249.50993317 96.97042968 246.38912025 95.29296875 243.26953125 C70.38076285 196.64408672 70.38076285 196.64408672 67.5234375 173.28125 C67.39453125 172.48203125 67.265625 171.6828125 67.1328125 170.859375 C66.89415644 168.4250832 66.85741212 166.63579042 67.5234375 164.28125 C69.79798437 161.8507342 72.54171721 160.68605425 75.5234375 159.28125 C76.36003906 158.78882813 77.19664062 158.29640625 78.05859375 157.7890625 C87.02749267 152.71803948 96.49822027 151.06397691 106.5234375 149.28125 C106.15992188 148.35828125 105.79640625 147.4353125 105.421875 146.484375 C90.73769106 108.63848932 90.73769106 108.63848932 94.5234375 97.28125 C96.81640625 95.73828125 96.81640625 95.73828125 99.7109375 94.09375 C104.89250853 90.85022112 109.0185875 87.98976686 111.5234375 82.28125 C112.3163455 78.60393689 112.8265639 75.00038918 113.19921875 71.2578125 C113.5234375 68.28125 113.5234375 68.28125 114.5234375 66.28125 C112.5434375 66.28125 110.5634375 66.28125 108.5234375 66.28125 C108.1934375 66.94125 107.8634375 67.60125 107.5234375 68.28125 C107.25080078 67.04761719 107.25080078 67.04761719 106.97265625 65.7890625 C104.60636942 53.04495075 104.60636942 53.04495075 99.5234375 41.28125 C93.27991975 38.06343701 86.39265162 37.88663557 79.5234375 38.28125 C83.74044212 41.334943 88.10540715 42.30259087 93.09765625 43.4375 C95.5234375 44.28125 95.5234375 44.28125 97.5234375 47.28125 C97.60546875 49.3671875 97.60546875 49.3671875 97.3359375 51.65625 C97.25988281 52.40648437 97.18382812 53.15671875 97.10546875 53.9296875 C96.21500187 57.52741273 95.11635212 60.25823795 91.8918457 62.32910156 C89.87772415 63.35914053 87.83960795 64.29774256 85.7734375 65.21875 C77.78354447 69.01599742 70.86345647 72.54422786 67.1875 81.046875 C63.02626319 95.04821297 71.28940167 111.51613655 76.84375 124.15405273 C79.18911356 129.67713394 80.8450065 135.20982452 80.5234375 141.28125 C79.8634375 141.94125 79.2034375 142.60125 78.5234375 143.28125 C74.08528851 137.53836739 71.96828674 130.99394583 69.5234375 124.21875 C68.88535156 122.49108398 68.88535156 122.49108398 68.234375 120.72851562 C56.60194816 88.91775328 56.60194816 88.91775328 63.5234375 73.28125 C64.5134375 71.79625 64.5134375 71.79625 65.5234375 70.28125 C61.62710034 70.83077751 57.73103469 71.38218816 53.83520508 71.93530273 C51.86228134 72.21501509 49.8891497 72.49325969 47.91601562 72.77148438 C46.66884766 72.94873047 45.42167969 73.12597656 44.13671875 73.30859375 C42.98985596 73.47093506 41.84299316 73.63327637 40.66137695 73.80053711 C37.92718385 74.21939856 35.22964795 74.71163814 32.5234375 75.28125 C32.57564453 77.11623047 32.57564453 77.11623047 32.62890625 78.98828125 C33.03548232 99.4936783 31.31456144 125.73190127 17.5234375 142.28125 C6.6546342 152.74750503 -4.48280187 156.83244539 -19.4609375 156.59375 C-34.06744047 155.74040026 -46.02004029 149.72926543 -56.0234375 139.23828125 C-65.96052071 127.25998191 -73.93579704 112.17069277 -72.4765625 96.28125 C-71.8165625 96.28125 -71.1565625 96.28125 -70.4765625 96.28125 C-70.23534668 96.85979736 -69.99413086 97.43834473 -69.74560547 98.03442383 C-59.5827539 123.89633947 -59.5827539 123.89633947 -39.4765625 142.28125 C-33.93193768 144.12945827 -28.27613955 144.29309713 -22.7421875 142.29296875 C-14.68953296 137.96161669 -10.92235116 131.43743467 -7.7265625 123.09375 C1.22142288 93.07299431 -6.6460255 56.82221953 -21.12109375 29.81665039 C-27.20985771 19.08743423 -35.40773044 10.11620598 -47.4765625 6.28125 C-52.62729872 5.36588644 -56.15540828 5.62067289 -60.8515625 7.96875 C-72.47981613 18.21268773 -75.06491776 33.70443686 -76.0390625 48.53125 C-76.08160156 49.56765625 -76.12414062 50.6040625 -76.16796875 51.671875 C-76.4765625 54.28125 -76.4765625 54.28125 -78.4765625 57.28125 C-80.25068644 51.93060528 -80.8311921 47.21805163 -80.7890625 41.59375 C-80.78342285 40.80282959 -80.7777832 40.01190918 -80.77197266 39.19702148 C-80.51822748 26.84767092 -77.07982867 15.86508775 -68.9765625 6.34375 C-64.41159267 2.57764989 -59.64973916 -0.22739398 -54.33984375 -2.77734375 C-52.33563066 -3.73856321 -52.33563066 -3.73856321 -50.1015625 -5.34375 C-35.29040504 -13.10197534 -12.64588051 -10.00075364 0 0 Z M-9.4765625 2.28125 C-8.703125 3.456875 -8.703125 3.456875 -7.9140625 4.65625 C-7.54539062 5.21699219 -7.17671875 5.77773437 -6.796875 6.35546875 C-5.89145608 7.67609457 -4.94599635 8.96988637 -3.96875 10.23828125 C16.76968432 37.77699287 23.53317193 76.01514487 18.90234375 109.61328125 C17.2268115 119.05818584 13.49653049 127.41103522 9.1328125 135.90234375 C7.3084302 139.10889339 7.3084302 139.10889339 7.5234375 142.28125 C19.74648912 131.2942373 23.1561607 115.75704102 25.3359375 99.96875 C25.45976807 99.07462402 25.58359863 98.18049805 25.71118164 97.25927734 C29.26574395 68.82801003 21.85519603 38.41032646 4.90234375 15.20703125 C1.12640992 10.56306666 -2.8781117 6.13212657 -7.4765625 2.28125 C-8.1365625 2.28125 -8.7965625 2.28125 -9.4765625 2.28125 Z M392.5234375 33.28125 C392.8534375 33.94125 393.1834375 34.60125 393.5234375 35.28125 C395.35448845 35.82640417 395.35448845 35.82640417 397.56640625 36.09765625 C398.39333984 36.22205078 399.22027344 36.34644531 400.07226562 36.47460938 C401.3784082 36.65733398 401.3784082 36.65733398 402.7109375 36.84375 C404.41277295 37.09496719 406.11459614 37.34626744 407.81640625 37.59765625 C408.62384277 37.71383301 409.4312793 37.83000977 410.26318359 37.94970703 C413.02341857 38.3545892 415.77402709 38.8087654 418.5234375 39.28125 C417.56751135 36.87151951 416.99212423 35.55195699 414.7109375 34.234375 C407.35417195 31.86970036 400.07245293 31.26817922 392.5234375 33.28125 Z M422.5234375 39.28125 C421.75626899 42.13203091 421.75626899 42.13203091 421.5234375 45.28125 C421.9565625 45.714375 422.3896875 46.1475 422.8359375 46.59375 C425.16179146 48.91960396 426.00056199 51.42645481 427.2109375 54.46875 C427.64792969 55.55542969 428.08492187 56.64210938 428.53515625 57.76171875 C428.86128906 58.59316406 429.18742187 59.42460937 429.5234375 60.28125 C429.8534375 60.28125 430.1834375 60.28125 430.5234375 60.28125 C430.96665823 53.48519873 429.775719 46.7814975 426.04296875 40.98046875 C425.54152344 40.41972656 425.04007813 39.85898438 424.5234375 39.28125 C423.8634375 39.28125 423.2034375 39.28125 422.5234375 39.28125 Z M429.5234375 40.28125 C429.78898437 40.88710937 430.05453125 41.49296875 430.328125 42.1171875 C432.85281233 48.10640926 434.48647487 53.86845481 435.5234375 60.28125 C436.1834375 60.28125 436.8434375 60.28125 437.5234375 60.28125 C437.2670293 57.88307921 436.9938891 55.48881272 436.7109375 53.09375 C436.60555664 52.08344727 436.60555664 52.08344727 436.49804688 51.05273438 C435.98201918 46.82130731 435.21470638 43.63719061 432.5234375 40.28125 C431.5334375 40.28125 430.5434375 40.28125 429.5234375 40.28125 Z M144.5390625 41.33984375 C143.60165222 41.4484523 142.66424194 41.55706085 141.69842529 41.66896057 C139.72824742 41.89820976 137.75829921 42.12944051 135.78857422 42.36254883 C132.76981758 42.71917765 129.75023307 43.06803401 126.73046875 43.41601562 C124.81244605 43.64016384 122.89447536 43.86475764 120.9765625 44.08984375 C120.07343323 44.19405136 119.17030396 44.29825897 118.23980713 44.40562439 C117.40173523 44.50565262 116.56366333 44.60568085 115.70019531 44.70874023 C114.9640802 44.79534409 114.22796509 44.88194794 113.46954346 44.97117615 C111.31454397 45.26031593 111.31454397 45.26031593 108.5234375 46.28125 C108.8534375 51.89125 109.1834375 57.50125 109.5234375 63.28125 C111.20824219 62.81976563 112.89304687 62.35828125 114.62890625 61.8828125 C121.65465486 60.12920873 128.63694219 59.32713772 135.8359375 58.65625 C137.10671143 58.53072754 138.37748535 58.40520508 139.68676758 58.27587891 C147.4724961 57.52118315 155.25344298 56.87419502 163.06640625 56.4921875 C165.52712978 56.43318259 165.52712978 56.43318259 167.5234375 55.28125 C168.2674798 49.32891161 165.89308918 45.91037805 162.5234375 41.28125 C161.41227956 39.94492584 161.41227956 39.94492584 158.58496094 40.15258789 C153.869525 40.22277858 149.21787763 40.78451282 144.5390625 41.33984375 Z M457.5234375 48.28125 C456.8634375 51.91125 456.2034375 55.54125 455.5234375 59.28125 C457.62492761 59.67096999 459.7297857 60.04256477 461.8359375 60.40625 C463.00769531 60.61507812 464.17945313 60.82390625 465.38671875 61.0390625 C468.68630022 61.61836288 468.68630022 61.61836288 471.5234375 59.28125 C472.25950249 55.71355448 472.25950249 55.71355448 472.5234375 52.28125 C470.39951244 51.6111666 468.27426226 50.94528203 466.1484375 50.28125 C464.96507812 49.91 463.78171875 49.53875 462.5625 49.15625 C459.73020311 48.18902394 459.73020311 48.18902394 457.5234375 48.28125 Z M33.7734375 55.71875 C32.3709375 56.234375 30.9684375 56.75 29.5234375 57.28125 C30.1834375 61.24125 30.8434375 65.20125 31.5234375 69.28125 C35.4834375 68.62125 39.4434375 67.96125 43.5234375 67.28125 C44.4247535 62.68453841 45.05972879 59.38762637 42.5234375 55.28125 C39.17842238 53.92714104 37.08967997 54.49954321 33.7734375 55.71875 Z M285.5234375 402.28125 C285.66442871 403.06024658 285.80541992 403.83924316 285.95068359 404.6418457 C290.70768056 431.09363185 290.70768056 431.09363185 291.8359375 440.90625 C291.91980713 441.62337158 292.00367676 442.34049316 292.09008789 443.0793457 C292.54107619 447.78881286 292.45683923 452.33134226 292.1796875 457.0546875 C290.75716137 469.7765389 290.75716137 469.7765389 295.09375 481.1328125 C297.75709297 483.57227096 300.70584297 485.42983803 303.83007812 487.22363281 C306.48755914 488.88340902 308.54410621 491.03652609 310.7109375 493.28125 C311.75314453 494.333125 311.75314453 494.333125 312.81640625 495.40625 C314.5234375 497.28125 314.5234375 497.28125 316.5234375 500.28125 C317.1834375 500.28125 317.8434375 500.28125 318.5234375 500.28125 C328.91112447 475.07588098 334.19228957 454.65142465 326.26416016 427.9440918 C325.5234375 425.28125 325.5234375 425.28125 324.98193359 422.17504883 C324.2211505 418.7276676 323.43992684 416.2567518 321.5234375 413.28125 C316.84251008 410.39445218 311.90255714 409.01645882 306.6484375 407.59375 C305.27079867 407.17955052 303.89447153 406.76096174 302.51953125 406.33789062 C296.8987203 404.64109238 291.33863094 403.15181117 285.5234375 402.28125 Z M56.5234375 844.28125 C58.14426789 850.32381943 60.14726305 856.19853054 62.3984375 862.03125 C62.87023437 863.26359375 63.34203125 864.4959375 63.828125 865.765625 C66.60853257 871.53144716 69.70927385 875.44201515 75.7734375 877.96875 C76.73636719 878.3709375 77.69929688 878.773125 78.69140625 879.1875 C88.92583104 883.14010544 98.47988403 885.63749366 109.5234375 885.28125 C109.10421039 880.90492793 106.2014124 878.7611179 103.0859375 876.03125 C102.5496875 875.54962402 102.0134375 875.06799805 101.4609375 874.57177734 C97.34297608 870.90771652 93.07574819 867.45916509 88.6796875 864.1328125 C86.5234375 862.28125 86.5234375 862.28125 84.859375 859.875 C81.42271058 856.05903817 77.24671167 854.32599842 72.6484375 852.15625 C71.32005859 851.51236328 71.32005859 851.51236328 69.96484375 850.85546875 C68.25524794 850.02742309 66.54342426 849.20395679 64.82910156 848.38574219 C62.04293447 847.05107257 59.28107829 845.67372208 56.5234375 844.28125 Z M363.5234375 871.28125 C377.58355761 883.15364744 397.06583678 891.60196844 414.7109375 896.34375 C415.46415283 896.54774414 416.21736816 896.75173828 416.9934082 896.96191406 C422.40020544 898.2951463 429.34325862 899.87133944 434.5234375 897.28125 C434.5234375 896.62125 434.5234375 895.96125 434.5234375 895.28125 C431.09738108 892.74507836 427.37915273 890.66692695 423.68847656 888.54199219 C422.19352222 887.67145269 420.70898879 886.78285601 419.23339844 885.87988281 C406.01693056 877.82551079 394.5518377 874.59057682 379.15625 873.49316406 C375.57234449 873.20469689 372.07184496 872.6722947 368.5234375 872.09375 C367.5334375 871.93519531 366.5434375 871.77664063 365.5234375 871.61328125 C364.8634375 871.50371094 364.2034375 871.39414062 363.5234375 871.28125 Z " fill="#000000" transform="translate(262.4765625,75.71875)"/>
<path d="M0 0 C6.30662633 5.40567971 8.60909761 13.15184474 10.6875 20.9375 C10.89955078 21.68451172 11.11160156 22.43152344 11.33007812 23.20117188 C14.74049549 35.67017416 16.87680576 53.6929666 12 66 C9.84459186 69.44231358 7.78379016 72.44454933 3.8046875 73.68359375 C2.91136719 73.84021484 2.91136719 73.84021484 2 74 C2.34933594 73.54109375 2.69867188 73.0821875 3.05859375 72.609375 C3.51363281 71.99578125 3.96867188 71.3821875 4.4375 70.75 C4.88996094 70.14671875 5.34242188 69.5434375 5.80859375 68.921875 C11.86242067 59.15635747 8.66354121 40.673523 6.41113281 30.10839844 C4.51967522 22.10951648 2.32618137 14.21882175 -0.3984375 6.4609375 C-1.03600592 3.85270307 -0.90231573 2.49601625 0 0 Z " fill="#000000" transform="translate(228,123)"/>
<path d="M0 0 C0.66 0 1.32 0 2 0 C3.04529471 5.32338828 2.85580709 9.64174782 1.5625 14.9375 C1.38638184 15.6682373 1.21026367 16.39897461 1.02880859 17.15185547 C-1.82266287 28.0454589 -6.87559269 39.06903096 -15 47 C-18.21451269 48.60725635 -21.43612536 48.05748185 -25 48 C-25.33 47.34 -25.66 46.68 -26 46 C-24.948125 45.79375 -23.89625 45.5875 -22.8125 45.375 C-17.40912235 43.75832677 -15.25247421 40.22428194 -12.60546875 35.5234375 C-7.61381161 25.54012322 -4.73031236 14.8250772 -1.66088867 4.13208008 C-1 2 -1 2 0 0 Z " fill="#000000" transform="translate(755,132)"/>
<path d="M0 0 C2.49118953 3.7367843 2.2065226 5.74451819 2.125 10.1875 C2.10695312 11.45980469 2.08890625 12.73210937 2.0703125 14.04296875 C2.04710937 15.01878906 2.02390625 15.99460938 2 17 C1.01 17.495 1.01 17.495 0 18 C-2.63842176 13.29672643 -3.19131138 10.66082034 -4 5 C-10.93 5 -17.86 5 -25 5 C-24.67082039 12.47825081 -24.67082039 12.47825081 -22 16 C-17.05 15.67 -12.1 15.34 -7 15 C-6.34 16.32 -5.68 17.64 -5 19 C-9.31349888 22.04331838 -13.27136928 22.89577249 -18.375 23.6875 C-19.16430908 23.81342529 -19.95361816 23.93935059 -20.7668457 24.0690918 C-43.3700295 27.41998033 -43.3700295 27.41998033 -51.875 21.75 C-53.60352397 19.06118494 -53.93832759 17.20696509 -54 14 C-52.11653303 8.44872892 -49.65034196 6.47704869 -44.5 3.75 C-38.48911014 0.99776105 -32.47310322 -0.726291 -26 -2 C-24.88625 -2.226875 -23.7725 -2.45375 -22.625 -2.6875 C-5.47072447 -4.16631686 -5.47072447 -4.16631686 0 0 Z " fill="#000000" transform="translate(207,141)"/>
<path d="M0 0 C9.3916475 7.91678589 17.82915768 18.33935266 20.25 30.75 C21.82077907 25.72350697 22.69854729 20.98880078 23.25 15.75 C24.24 15.42 25.23 15.09 26.25 14.75 C26.91 15.08 27.57 15.41 28.25 15.75 C29.00235506 24.42354679 27.1290287 31.77697436 24.30712891 39.90283203 C23.62592009 41.87233984 22.97749248 43.85055839 22.33203125 45.83203125 C18.4814078 57.36863138 13.80013036 66.2511197 3.25 72.75 C-2.99881692 75.76888512 -8.9218085 77.87399759 -15.890625 77.8828125 C-17.37369141 77.88474609 -17.37369141 77.88474609 -18.88671875 77.88671875 C-19.91410156 77.88285156 -20.94148437 77.87898438 -22 77.875 C-23.01191406 77.87886719 -24.02382813 77.88273437 -25.06640625 77.88671875 C-29.52204103 77.88093972 -33.84317298 77.81002204 -38.25390625 77.1484375 C-42.58239293 76.65513511 -44.84076801 77.97978174 -48.75 79.75 C-51.6875 79.4375 -51.6875 79.4375 -53.75 78.75 C-51.875 74.875 -51.875 74.875 -50.75 73.75 C-51.77738281 73.2653125 -52.80476562 72.780625 -53.86328125 72.28125 C-63.20530027 67.79211051 -72.33053212 63.16946788 -79.75 55.75 C-80.15089844 56.54664063 -80.55179688 57.34328125 -80.96484375 58.1640625 C-85.07394324 65.82320033 -89.15608004 71.50176118 -97.62890625 74.390625 C-100.44203789 74.86725136 -103.14869387 74.84349246 -106 74.8125 C-107.07765625 74.80347656 -108.1553125 74.79445313 -109.265625 74.78515625 C-110.49539063 74.76775391 -110.49539063 74.76775391 -111.75 74.75 C-111.71519531 75.46285156 -111.68039062 76.17570312 -111.64453125 76.91015625 C-111.47221427 83.00689521 -111.59527292 87.45456525 -114.75 92.75 C-116.9375 94.1875 -116.9375 94.1875 -118.75 94.75 C-118.21375 95.6575 -117.6775 96.565 -117.125 97.5 C-115.75 100.75 -115.75 100.75 -116.5625 103.125 C-116.954375 103.66125 -117.34625 104.1975 -117.75 104.75 C-121.17363714 103.34242327 -122.58891891 101.84402914 -124.5625 98.75 C-126.75911147 95.71448164 -127.67484964 94.78552563 -131.1875 93.125 C-135.4196837 92.67950698 -137.79288799 93.29636702 -141.75 94.75 C-143.00557937 100.64576398 -143.04571142 104.73105915 -139.9921875 110.02734375 C-136.62460135 114.69748681 -132.16623485 117.26675303 -126.625 118.375 C-121.98197226 118.82432526 -117.40990532 118.8343846 -112.75 118.75 C-113.74 120.07 -114.73 121.39 -115.75 122.75 C-105.34907191 143.59679847 -94.76443274 159.54416578 -71.875 167.625 C-63.28239927 169.9357316 -53.69218436 170.26083166 -45.703125 166 C-33.43855123 158.15067279 -27.52857792 144.54499011 -24.0625 130.75 C-21.7077198 118.94934011 -21.44426077 106.73815102 -20.75 94.75 C-16.97033941 98.52966059 -16.49582391 103.21085878 -16.42041016 108.40673828 C-16.4260498 109.09751465 -16.43168945 109.78829102 -16.4375 110.5 C-16.44313965 111.23589355 -16.4487793 111.97178711 -16.45458984 112.72998047 C-16.87056337 132.20660208 -21.79117775 152.61531272 -35.875 166.90625 C-43.71717231 173.51608094 -52.49882016 176.48355889 -62.72265625 176.0625 C-81.928332 174.07997863 -95.86172553 164.17563988 -108.0625 149.9375 C-114.04128636 142.09503338 -119.54888372 132.80581402 -119.75 122.75 C-120.5234375 122.79640625 -121.296875 122.8428125 -122.09375 122.890625 C-128.91468582 123.12699406 -134.22159449 123.01816684 -139.75 118.75 C-144.32441031 114.41110389 -148.48015089 110.03760249 -148.890625 103.515625 C-149.00996933 97.26993865 -149.00996933 97.26993865 -147.75 94.75 C-148.7709375 94.4715625 -148.7709375 94.4715625 -149.8125 94.1875 C-159.25737022 89.56554223 -164.07708908 79.38247396 -167.42578125 69.8203125 C-169.48080815 56.69785158 -167.83477562 43.50837662 -160.4375 32.3125 C-153.48735386 23.25091706 -145.02682388 18.17447799 -133.75 15.75 C-119.86264369 14.62012307 -106.80116946 15.13069177 -94.75 22.75 C-94.18152344 21.96496094 -93.61304688 21.17992187 -93.02734375 20.37109375 C-81.13543856 4.19095563 -67.37907068 -7.05000186 -47.125 -10.5 C-30.79282576 -12.62778326 -13.53481827 -9.9778865 0 0 Z M-84.1875 19.5625 C-88.73522061 24.10373993 -88.73522061 24.10373993 -90.75 29.75 C-87.6697522 28.72325073 -86.50930156 27.59796433 -84.3046875 25.328125 C-70.60306331 11.41994366 -53.2535499 1.31496346 -33.4375 0.4375 C-23.66861427 0.71711032 -14.49844895 3.41204107 -5.859375 7.859375 C-5.16328125 8.15328125 -4.4671875 8.4471875 -3.75 8.75 C-3.09 8.42 -2.43 8.09 -1.75 7.75 C-30.23607344 -12.45288897 -61.2219791 -5.86659496 -84.1875 19.5625 Z M-154.8125 34.125 C-155.451875 34.99125 -156.09125 35.8575 -156.75 36.75 C-156.42 37.41 -156.09 38.07 -155.75 38.75 C-155.31171875 38.30269531 -154.8734375 37.85539062 -154.421875 37.39453125 C-140.45310679 24.07877456 -122.82489398 24.43134369 -104.75 24.75 C-119.635985 14.82601 -143.79182369 21.10893661 -154.8125 34.125 Z " fill="#000000" transform="translate(592.75,212.25)"/>
<path d="M0 0 C1.87451172 0.17529297 1.87451172 0.17529297 4 1 C5.12158203 3.22705078 5.12158203 3.22705078 6.0078125 6.1953125 C6.34917236 7.29182129 6.69053223 8.38833008 7.04223633 9.51806641 C7.39954834 10.70835449 7.75686035 11.89864258 8.125 13.125 C12.26699213 26.18893442 17.23618418 38.57730127 23 51 C23.46809082 52.01835937 23.93618164 53.03671875 24.41845703 54.0859375 C33.22866248 73.17324318 42.88182729 91.78069925 55 109 C55.76341692 110.11300968 56.52641705 111.22630531 57.2890625 112.33984375 C67.37390095 126.91291149 78.70994201 139.9904646 92.64453125 150.984375 C95 153 95 153 97 156 C88.64237041 154.92159618 84.21237308 151.51335804 78 146 C77.25878906 145.401875 76.51757812 144.80375 75.75390625 144.1875 C41.69880208 116.02071152 4.26697601 49.86683978 -0.9375 6.0625 C-1.11218112 3.45124126 -1.17671785 2.35343569 0 0 Z " fill="#000000" transform="translate(387,238)"/>
<path d="M0 0 C0.33 0 0.66 0 1 0 C4.12964564 36.16479402 -18.68908319 76.11024219 -32.20483398 108.58691406 C-41.66335945 131.3241343 -50.98230113 154.05896623 -57 178 C-57.27521484 179.09054687 -57.55042969 180.18109375 -57.83398438 181.3046875 C-59.79424659 189.65791889 -60.42147431 197.56455377 -60.5 206.125 C-60.72432276 216.67882002 -61.31070594 227.06094506 -62.4375 237.5625 C-62.55996094 238.73893066 -62.68242188 239.91536133 -62.80859375 241.12744141 C-63.37323947 246.11735092 -63.96093215 250.37472055 -66 255 C-69.76656374 248.53877998 -68.06127337 240.42453785 -67.5 233.25 C-65.90742365 212.31899653 -66.14064697 189.688574 -73.50390625 169.7734375 C-74.19612105 167.29890587 -73.84923622 165.39330208 -73 163 C-71.13671875 163.22265625 -71.13671875 163.22265625 -69 164 C-67.76953125 165.99609375 -67.76953125 165.99609375 -66.8125 168.4375 C-66.48894531 169.24058594 -66.16539062 170.04367187 -65.83203125 170.87109375 C-65.55746094 171.57363281 -65.28289063 172.27617187 -65 173 C-64.67 173.66 -64.34 174.32 -64 175 C-63.68542847 173.68467285 -63.68542847 173.68467285 -63.36450195 172.34277344 C-60.75334495 161.95790661 -57.18187951 152.17443709 -53.1875 142.25 C-52.52412454 140.58398586 -51.86096148 138.91788713 -51.19799805 137.25170898 C-46.4525181 125.37830881 -41.45749554 113.62042736 -36.37042236 101.89016724 C-30.29283043 87.86481824 -24.663233 73.6982067 -19.27978516 59.39306641 C-18.12167242 56.32258744 -16.94433123 53.26031836 -15.76171875 50.19921875 C-10.48632941 36.34678478 -6.57488053 22.20930544 -2.83447266 7.88061523 C-2.04763011 5.16442004 -1.09954273 2.60324981 0 0 Z " fill="#000000" transform="translate(664,246)"/>
<path d="M0 0 C8.41778859 0.21335409 16.41915371 2.35191542 24 6 C24.33 6.99 24.66 7.98 25 9 C17.74598609 11.41800464 9.87169329 10.15826478 3 7 C0.375 4.3125 0.375 4.3125 -1 2 C-0.67 1.34 -0.34 0.68 0 0 Z " fill="#000000" transform="translate(502,286)"/>
<path d="M0 0 C0.66 0 1.32 0 2 0 C1.61335145 9.46499874 0.02083758 18.13228101 -2.5 27.25 C-2.67606781 27.89551819 -2.85213562 28.54103638 -3.03353882 29.20611572 C-23.08181939 102.4991918 -23.08181939 102.4991918 -47.9375 118.375 C-59.70320435 124.89575181 -71.45204162 123.82100509 -84.109375 120.2734375 C-91.43761307 118.01611049 -97.7370604 114.60092654 -103 109 C-97.72553434 109.31026269 -93.53788924 110.46071617 -88.625 112.4375 C-77.63552378 116.83329049 -66.48583912 118.98568435 -55 115 C-41.39696132 108.89395664 -34.90223634 92.81507141 -29 80 C-28.65501465 79.26410645 -28.3100293 78.52821289 -27.95458984 77.77001953 C-18.09405828 56.55657599 -10.78025621 33.83636689 -4.8371582 11.22851562 C-3.72576042 7.08304139 -2.62437811 3.4898645 0 0 Z " fill="#000000" transform="translate(600,291)"/>
<path d="M0 0 C0.99 0.33 1.98 0.66 3 1 C3.28792938 6.56663461 3.22557511 10.2172507 0 15 C-1.63836992 16.04571593 -3.30278124 17.05277971 -5 18 C-4.44119141 19.28583984 -4.44119141 19.28583984 -3.87109375 20.59765625 C0.48332896 31.1218332 0.48332896 31.1218332 0.25 35.0625 C-1.1365689 38.32093692 -2.55230264 39.7885775 -5.74609375 41.35546875 C-10.09652731 42.59952687 -14.52419887 42.29137223 -19 42 C-18 40 -18 40 -15.53125 39.0703125 C-13.51189137 38.44056406 -11.491049 37.81555369 -9.46875 37.1953125 C-6.89431795 36.27779205 -6.89431795 36.27779205 -6.21948242 34.23022461 C-5.9303361 31.29212487 -6.72485209 29.76343581 -8.01953125 27.12109375 C-8.68758789 25.73954102 -8.68758789 25.73954102 -9.36914062 24.33007812 C-9.84544922 23.37552734 -10.32175781 22.42097656 -10.8125 21.4375 C-11.27720703 20.47908203 -11.74191406 19.52066406 -12.22070312 18.53320312 C-14.00605245 14.87797575 -15.74082532 11.38876202 -18 8 C-17.625 5.3125 -17.625 5.3125 -17 3 C-15.1875 3.1875 -15.1875 3.1875 -13 4 C-10 8.17857143 -10 8.17857143 -10 11 C-8.35 11 -6.7 11 -5 11 C-4.72285156 10.28972656 -4.44570313 9.57945312 -4.16015625 8.84765625 C-3.79792969 7.92855469 -3.43570313 7.00945312 -3.0625 6.0625 C-2.70285156 5.14597656 -2.34320312 4.22945313 -1.97265625 3.28515625 C-1 1 -1 1 0 0 Z " fill="#000000" transform="translate(563,297)"/>
<path d="M0 0 C2.475 0.495 2.475 0.495 5 1 C5.56714817 11.81782628 5.56714817 11.81782628 2 16 C-0.99397716 19.16506157 -2.50648737 19.93632095 -6.875 20.5 C-12.49804518 20.20293346 -16.1666758 17.46665936 -20.5 14 C-22 12 -22 12 -21.75 9.75 C-21.5025 9.1725 -21.255 8.595 -21 8 C-16.52578095 8.51133932 -14.45508549 10.23593161 -11 13 C-7.6173409 14.04701353 -6.40552239 14.13517413 -3 13 C-0.7513655 8.87750342 -0.46762265 4.59828934 0 0 Z " fill="#000000" transform="translate(532,301)"/>
<path d="M0 0 C1.8125 0.0625 1.8125 0.0625 4 1 C4.8971875 2.423125 4.8971875 2.423125 5.8125 3.875 C7.99087607 6.98696582 8.39841905 7.41676618 11.6875 8.625 C15 10 15 10 16 12.125 C16 12.74375 16 13.3625 16 14 C15.67 14.33 15.34 14.66 15 15 C8.48150502 14.77903407 5.60474665 13.60474665 1 9 C-1.14809171 5.77786243 -1.29386153 4.72224599 -1 1 C-0.67 0.67 -0.34 0.34 0 0 Z " fill="#000000" transform="translate(521,345)"/>
</svg>
